 0
SECTION
 2
HEADER
 9
$ACADVER
 1
AC1009
 0
ENDSEC
 0
SECTION
 2
TABLES
 0
TABLE
 2
LTYPE
 70
1
 0
LTYPE
 2
CONTINUOUS
 70
64
 3
solid line
 72
65
 73
0
 40
0.0
 0
ENDTAB
 0
TABLE
 2
LAYER
 70
6
 0
LAYER
 2
0
 70
0
 62
7
 6
CONTINUOUS
 0
LAYER
 2
UNICORN
 70
64
 62
7
 6
CONTINUOUS
 0
ENDTAB
 0
ENDSEC
 0
SECTION
 2
BLOCKS
 0
ENDSEC
 0
SECTION
 2
ENTITIES
 0
POLYLINE
 8
UNICORN
 66
1
 10
0.0
 20
0.0
 30
0.0
 70
9
 0
VERTEX
 8
UNICORN
 10
1.4119
 20
0.212
 30
5.9033
 70
32
 0
VERTEX
 8
UNICORN
 10
1.4192
 20
0.2072
 30
5.9033
 70
32
 0
VERTEX
 8
UNICORN
 10
1.4272
 20
0.2031
 30
5.9033
 70
32
 0
VERTEX
 8
UNICORN
 10
1.4402
 20
0.1981
 30
5.9033
 70
32
 0
VERTEX
 8
UNICORN
 10
1.4545
 20
0.1943
 30
5.9033
 70
32
 0
VERTEX
 8
UNICORN
 10
1.4751
 20
0.1909
 30
5.9033
 70
32
 0
VERTEX
 8
UNICORN
 10
1.5827
 20
0.1901
 30
5.9033
 70
32
 0
VERTEX
 8
UNICORN
 10
1.6914
 20
0.1905
 30
5.9033
 70
32
 0
VERTEX
 8
UNICORN
 10
1.7024
 20
0.1975
 30
5.9033
 70
32
 0
VERTEX
 8
UNICORN
 10
1.7123
 20
0.2056
 30
5.9033
 70
32
 0
VERTEX
 8
UNICORN
 10
1.7213
 20
0.2147
 30
5.9033
 70
32
 0
VERTEX
 8
UNICORN
 10
1.732
 20
0.2281
 30
5.9033
 70
32
 0
VERTEX
 8
UNICORN
 10
1.7438
 20
0.2464
 30
5.9033
 70
32
 0
VERTEX
 8
UNICORN
 10
1.7937
 20
0.3349
 30
5.9033
 70
32
 0
VERTEX
 8
UNICORN
 10
1.8046
 20
0.3481
 30
5.9033
 70
32
 0
VERTEX
 8
UNICORN
 10
1.8106
 20
0.3542
 30
5.9033
 70
32
 0
VERTEX
 8
UNICORN
 10
1.8203
 20
0.3624
 30
5.9033
 70
32
 0
VERTEX
 8
UNICORN
 10
1.8261
 20
0.3564
 30
5.9033
 70
32
 0
VERTEX
 8
UNICORN
 10
1.8316
 20
0.3519
 30
5.9033
 70
32
 0
VERTEX
 8
UNICORN
 10
1.8366
 20
0.3487
 30
5.9033
 70
32
 0
VERTEX
 8
UNICORN
 10
1.8391
 20
0.3476
 30
5.9033
 70
32
 0
VERTEX
 8
UNICORN
 10
1.8414
 20
0.3468
 30
5.9033
 70
32
 0
VERTEX
 8
UNICORN
 10
1.8437
 20
0.3463
 30
5.9033
 70
32
 0
VERTEX
 8
UNICORN
 10
1.8459
 20
0.346
 30
5.9033
 70
32
 0
VERTEX
 8
UNICORN
 10
1.8481
 20
0.346
 30
5.9033
 70
32
 0
VERTEX
 8
UNICORN
 10
1.8502
 20
0.3462
 30
5.9033
 70
32
 0
VERTEX
 8
UNICORN
 10
1.8522
 20
0.3466
 30
5.9033
 70
32
 0
VERTEX
 8
UNICORN
 10
1.8542
 20
0.3473
 30
5.9033
 70
32
 0
VERTEX
 8
UNICORN
 10
1.8581
 20
0.349
 30
5.9033
 70
32
 0
VERTEX
 8
UNICORN
 10
1.8618
 20
0.3514
 30
5.9033
 70
32
 0
VERTEX
 8
UNICORN
 10
1.8671
 20
0.3558
 30
5.9033
 70
32
 0
VERTEX
 8
UNICORN
 10
1.8864
 20
0.3735
 30
5.9033
 70
32
 0
VERTEX
 8
UNICORN
 10
1.8901
 20
0.3759
 30
5.9033
 70
32
 0
VERTEX
 8
UNICORN
 10
1.894
 20
0.3776
 30
5.9033
 70
32
 0
VERTEX
 8
UNICORN
 10
1.896
 20
0.3782
 30
5.9033
 70
32
 0
VERTEX
 8
UNICORN
 10
1.898
 20
0.3787
 30
5.9033
 70
32
 0
VERTEX
 8
UNICORN
 10
1.9001
 20
0.3789
 30
5.9033
 70
32
 0
VERTEX
 8
UNICORN
 10
1.9023
 20
0.3789
 30
5.9033
 70
32
 0
VERTEX
 8
UNICORN
 10
1.9045
 20
0.3786
 30
5.9033
 70
32
 0
VERTEX
 8
UNICORN
 10
1.9068
 20
0.3781
 30
5.9033
 70
32
 0
VERTEX
 8
UNICORN
 10
1.9091
 20
0.3773
 30
5.9033
 70
32
 0
VERTEX
 8
UNICORN
 10
1.9115
 20
0.3762
 30
5.9033
 70
32
 0
VERTEX
 8
UNICORN
 10
1.9166
 20
0.373
 30
5.9033
 70
32
 0
VERTEX
 8
UNICORN
 10
1.922
 20
0.3685
 30
5.9033
 70
32
 0
VERTEX
 8
UNICORN
 10
1.9278
 20
0.3624
 30
5.9033
 70
32
 0
VERTEX
 8
UNICORN
 10
1.9287
 20
0.3796
 30
5.9033
 70
32
 0
VERTEX
 8
UNICORN
 10
1.9311
 20
0.3953
 30
5.9033
 70
32
 0
VERTEX
 8
UNICORN
 10
1.9348
 20
0.4096
 30
5.9033
 70
32
 0
VERTEX
 8
UNICORN
 10
1.9413
 20
0.4272
 30
5.9033
 70
32
 0
VERTEX
 8
UNICORN
 10
1.9513
 20
0.4473
 30
5.9033
 70
32
 0
VERTEX
 8
UNICORN
 10
1.981
 20
0.5019
 30
5.9033
 70
32
 0
VERTEX
 8
UNICORN
 10
1.9876
 20
0.5194
 30
5.9033
 70
32
 0
VERTEX
 8
UNICORN
 10
1.9913
 20
0.5337
 30
5.9033
 70
32
 0
VERTEX
 8
UNICORN
 10
1.9938
 20
0.5493
 30
5.9033
 70
32
 0
VERTEX
 8
UNICORN
 10
1.9948
 20
0.5664
 30
5.9033
 70
32
 0
VERTEX
 8
UNICORN
 10
1.9944
 20
0.5787
 30
5.9033
 70
32
 0
VERTEX
 8
UNICORN
 10
1.9923
 20
0.5989
 30
5.9033
 70
32
 0
VERTEX
 8
UNICORN
 10
2.0043
 20
0.6029
 30
5.9033
 70
32
 0
VERTEX
 8
UNICORN
 10
2.0154
 20
0.6081
 30
5.9033
 70
32
 0
VERTEX
 8
UNICORN
 10
2.0259
 20
0.6145
 30
5.9033
 70
32
 0
VERTEX
 8
UNICORN
 10
2.0357
 20
0.6218
 30
5.9033
 70
32
 0
VERTEX
 8
UNICORN
 10
2.0481
 20
0.6329
 30
5.9033
 70
32
 0
VERTEX
 8
UNICORN
 10
2.0946
 20
0.6909
 30
5.9033
 70
32
 0
VERTEX
 8
UNICORN
 10
2.1428
 20
0.7494
 30
5.9033
 70
32
 0
VERTEX
 8
UNICORN
 10
2.1445
 20
0.7508
 30
5.9033
 70
32
 0
VERTEX
 8
UNICORN
 10
2.1464
 20
0.7521
 30
5.9033
 70
32
 0
VERTEX
 8
UNICORN
 10
2.1496
 20
0.7539
 30
5.9033
 70
32
 0
VERTEX
 8
UNICORN
 10
2.1545
 20
0.7559
 30
5.9033
 70
32
 0
VERTEX
 8
UNICORN
 10
2.1628
 20
0.7583
 30
5.9033
 70
32
 0
VERTEX
 8
UNICORN
 10
2.1992
 20
0.7668
 30
5.9033
 70
32
 0
VERTEX
 8
UNICORN
 10
2.2036
 20
0.7686
 30
5.9033
 70
32
 0
VERTEX
 8
UNICORN
 10
2.2056
 20
0.7697
 30
5.9033
 70
32
 0
VERTEX
 8
UNICORN
 10
2.2073
 20
0.7709
 30
5.9033
 70
32
 0
VERTEX
 8
UNICORN
 10
2.229
 20
0.7915
 30
5.9033
 70
32
 0
VERTEX
 8
UNICORN
 10
2.2503
 20
0.8139
 30
5.9033
 70
32
 0
VERTEX
 8
UNICORN
 10
2.2682
 20
0.8354
 30
5.9033
 70
32
 0
VERTEX
 8
UNICORN
 10
2.282
 20
0.8566
 30
5.9033
 70
32
 0
VERTEX
 8
UNICORN
 10
2.2921
 20
0.8775
 30
5.9033
 70
32
 0
VERTEX
 8
UNICORN
 10
2.2989
 20
0.8983
 30
5.9033
 70
32
 0
VERTEX
 8
UNICORN
 10
2.303
 20
0.9189
 30
5.9033
 70
32
 0
VERTEX
 8
UNICORN
 10
2.3047
 20
0.9395
 30
5.9033
 70
32
 0
VERTEX
 8
UNICORN
 10
2.3041
 20
0.967
 30
5.9033
 70
32
 0
VERTEX
 8
UNICORN
 10
2.2872
 20
1.1292
 30
5.9033
 70
32
 0
VERTEX
 8
UNICORN
 10
2.289
 20
1.1538
 30
5.9033
 70
32
 0
VERTEX
 8
UNICORN
 10
2.2933
 20
1.1793
 30
5.9033
 70
32
 0
VERTEX
 8
UNICORN
 10
2.3129
 20
1.1448
 30
5.9033
 70
32
 0
VERTEX
 8
UNICORN
 10
2.3295
 20
1.1072
 30
5.9033
 70
32
 0
VERTEX
 8
UNICORN
 10
2.3428
 20
1.0663
 30
5.9033
 70
32
 0
VERTEX
 8
UNICORN
 10
2.3526
 20
1.0219
 30
5.9033
 70
32
 0
VERTEX
 8
UNICORN
 10
2.3586
 20
0.9738
 30
5.9033
 70
32
 0
VERTEX
 8
UNICORN
 10
2.3606
 20
0.9216
 30
5.9033
 70
32
 0
VERTEX
 8
UNICORN
 10
2.3578
 20
0.8569
 30
5.9033
 70
32
 0
VERTEX
 8
UNICORN
 10
2.3149
 20
0.8172
 30
5.9033
 70
32
 0
VERTEX
 8
UNICORN
 10
2.2563
 20
0.7519
 30
5.9033
 70
32
 0
VERTEX
 8
UNICORN
 10
2.1536
 20
0.6208
 30
5.9033
 70
32
 0
VERTEX
 8
UNICORN
 10
2.0353
 20
0.4914
 30
5.9033
 70
32
 0
VERTEX
 8
UNICORN
 10
2.0397
 20
0.4612
 30
5.9033
 70
32
 0
VERTEX
 8
UNICORN
 10
2.0408
 20
0.4343
 30
5.9033
 70
32
 0
VERTEX
 8
UNICORN
 10
2.0392
 20
0.4102
 30
5.9033
 70
32
 0
VERTEX
 8
UNICORN
 10
2.0353
 20
0.3882
 30
5.9033
 70
32
 0
VERTEX
 8
UNICORN
 10
2.0282
 20
0.3631
 30
5.9033
 70
32
 0
VERTEX
 8
UNICORN
 10
1.9971
 20
0.2717
 30
5.9033
 70
32
 0
VERTEX
 8
UNICORN
 10
1.9934
 20
0.2496
 30
5.9033
 70
32
 0
VERTEX
 8
UNICORN
 10
1.9921
 20
0.2315
 30
5.9033
 70
32
 0
VERTEX
 8
UNICORN
 10
1.9923
 20
0.212
 30
5.9033
 70
32
 0
VERTEX
 8
UNICORN
 10
1.9982
 20
0.2075
 30
5.9033
 70
32
 0
VERTEX
 8
UNICORN
 10
2.0046
 20
0.2036
 30
5.9033
 70
32
 0
VERTEX
 8
UNICORN
 10
2.0116
 20
0.2003
 30
5.9033
 70
32
 0
VERTEX
 8
UNICORN
 10
2.023
 20
0.1962
 30
5.9033
 70
32
 0
VERTEX
 8
UNICORN
 10
2.0355
 20
0.1932
 30
5.9033
 70
32
 0
VERTEX
 8
UNICORN
 10
2.0535
 20
0.1905
 30
5.9033
 70
32
 0
VERTEX
 8
UNICORN
 10
2.1408
 20
0.1902
 30
5.9033
 70
32
 0
VERTEX
 8
UNICORN
 10
2.2288
 20
0.1905
 30
5.9033
 70
32
 0
VERTEX
 8
UNICORN
 10
2.2301
 20
0.1943
 30
5.9033
 70
32
 0
VERTEX
 8
UNICORN
 10
2.2317
 20
0.1978
 30
5.9033
 70
32
 0
VERTEX
 8
UNICORN
 10
2.2332
 20
0.2003
 30
5.9033
 70
32
 0
VERTEX
 8
UNICORN
 10
2.2348
 20
0.2025
 30
5.9033
 70
32
 0
VERTEX
 8
UNICORN
 10
2.2367
 20
0.2045
 30
5.9033
 70
32
 0
VERTEX
 8
UNICORN
 10
2.2388
 20
0.2063
 30
5.9033
 70
32
 0
VERTEX
 8
UNICORN
 10
2.241
 20
0.2079
 30
5.9033
 70
32
 0
VERTEX
 8
UNICORN
 10
2.2435
 20
0.2092
 30
5.9033
 70
32
 0
VERTEX
 8
UNICORN
 10
2.2463
 20
0.2104
 30
5.9033
 70
32
 0
VERTEX
 8
UNICORN
 10
2.2492
 20
0.2113
 30
5.9033
 70
32
 0
VERTEX
 8
UNICORN
 10
2.2535
 20
0.2122
 30
5.9033
 70
32
 0
VERTEX
 8
UNICORN
 10
2.2582
 20
0.2127
 30
5.9033
 70
32
 0
VERTEX
 8
UNICORN
 10
2.2646
 20
0.2127
 30
5.9033
 70
32
 0
VERTEX
 8
UNICORN
 10
2.2718
 20
0.212
 30
5.9033
 70
32
 0
VERTEX
 8
UNICORN
 10
2.2762
 20
0.2308
 30
5.9033
 70
32
 0
VERTEX
 8
UNICORN
 10
2.2825
 20
0.2476
 30
5.9033
 70
32
 0
VERTEX
 8
UNICORN
 10
2.2906
 20
0.2628
 30
5.9033
 70
32
 0
VERTEX
 8
UNICORN
 10
2.3
 20
0.2766
 30
5.9033
 70
32
 0
VERTEX
 8
UNICORN
 10
2.3143
 20
0.2933
 30
5.9033
 70
32
 0
VERTEX
 8
UNICORN
 10
2.3923
 20
0.37
 30
5.9033
 70
32
 0
VERTEX
 8
UNICORN
 10
2.4018
 20
0.3838
 30
5.9033
 70
32
 0
VERTEX
 8
UNICORN
 10
2.4098
 20
0.399
 30
5.9033
 70
32
 0
VERTEX
 8
UNICORN
 10
2.4162
 20
0.4158
 30
5.9033
 70
32
 0
VERTEX
 8
UNICORN
 10
2.4193
 20
0.4281
 30
5.9033
 70
32
 0
VERTEX
 8
UNICORN
 10
2.4223
 20
0.4484
 30
5.9033
 70
32
 0
VERTEX
 8
UNICORN
 10
2.4867
 20
0.4484
 30
5.9033
 70
32
 0
VERTEX
 8
UNICORN
 10
2.4876
 20
0.4988
 30
5.9033
 70
32
 0
VERTEX
 8
UNICORN
 10
2.4974
 20
0.584
 30
5.9033
 70
32
 0
VERTEX
 8
UNICORN
 10
2.5109
 20
0.6947
 30
5.9033
 70
32
 0
VERTEX
 8
UNICORN
 10
2.5119
 20
0.7376
 30
5.9033
 70
32
 0
VERTEX
 8
UNICORN
 10
2.5082
 20
0.7924
 30
5.9033
 70
32
 0
VERTEX
 8
UNICORN
 10
2.5202
 20
0.8062
 30
5.9033
 70
32
 0
VERTEX
 8
UNICORN
 10
2.5368
 20
0.8219
 30
5.9033
 70
32
 0
VERTEX
 8
UNICORN
 10
2.5622
 20
0.8416
 30
5.9033
 70
32
 0
VERTEX
 8
UNICORN
 10
2.6446
 20
0.9011
 30
5.9033
 70
32
 0
VERTEX
 8
UNICORN
 10
2.6608
 20
0.9171
 30
5.9033
 70
32
 0
VERTEX
 8
UNICORN
 10
2.6697
 20
0.9276
 30
5.9033
 70
32
 0
VERTEX
 8
UNICORN
 10
2.6802
 20
0.9428
 30
5.9033
 70
32
 0
VERTEX
 8
UNICORN
 10
2.6797
 20
0.9542
 30
5.9033
 70
32
 0
VERTEX
 8
UNICORN
 10
2.678
 20
0.9654
 30
5.9033
 70
32
 0
VERTEX
 8
UNICORN
 10
2.6744
 20
0.9804
 30
5.9033
 70
32
 0
VERTEX
 8
UNICORN
 10
2.6679
 20
0.9991
 30
5.9033
 70
32
 0
VERTEX
 8
UNICORN
 10
2.6215
 20
1.1073
 30
5.9033
 70
32
 0
VERTEX
 8
UNICORN
 10
2.6184
 20
1.1196
 30
5.9033
 70
32
 0
VERTEX
 8
UNICORN
 10
2.6157
 20
1.1363
 30
5.9033
 70
32
 0
VERTEX
 8
UNICORN
 10
2.6134
 20
1.1786
 30
5.9033
 70
32
 0
VERTEX
 8
UNICORN
 10
2.6151
 20
1.218
 30
5.9033
 70
32
 0
VERTEX
 8
UNICORN
 10
2.6203
 20
1.2545
 30
5.9033
 70
32
 0
VERTEX
 8
UNICORN
 10
2.6285
 20
1.2885
 30
5.9033
 70
32
 0
VERTEX
 8
UNICORN
 10
2.6422
 20
1.3278
 30
5.9033
 70
32
 0
VERTEX
 8
UNICORN
 10
2.6623
 20
1.3705
 30
5.9033
 70
32
 0
VERTEX
 8
UNICORN
 10
2.7037
 20
1.4385
 30
5.9033
 70
32
 0
VERTEX
 8
UNICORN
 10
2.7447
 20
1.5018
 30
5.9033
 70
32
 0
VERTEX
 8
UNICORN
 10
2.8132
 20
1.6322
 30
5.9033
 70
32
 0
VERTEX
 8
UNICORN
 10
2.8487
 20
1.7181
 30
5.9033
 70
32
 0
VERTEX
 8
UNICORN
 10
2.8628
 20
1.7607
 30
5.9033
 70
32
 0
VERTEX
 8
UNICORN
 10
2.8737
 20
1.8027
 30
5.9033
 70
32
 0
VERTEX
 8
UNICORN
 10
2.8797
 20
1.838
 30
5.9033
 70
32
 0
VERTEX
 8
UNICORN
 10
2.8838
 20
1.8912
 30
5.9033
 70
32
 0
VERTEX
 8
UNICORN
 10
2.8873
 20
2.027
 30
5.9033
 70
32
 0
VERTEX
 8
UNICORN
 10
2.89
 20
2.0432
 30
5.9033
 70
32
 0
VERTEX
 8
UNICORN
 10
2.8918
 20
2.0505
 30
5.9033
 70
32
 0
VERTEX
 8
UNICORN
 10
2.8952
 20
2.0607
 30
5.9033
 70
32
 0
VERTEX
 8
UNICORN
 10
2.9038
 20
2.0796
 30
5.9033
 70
32
 0
VERTEX
 8
UNICORN
 10
2.9178
 20
2.1036
 30
5.9033
 70
32
 0
VERTEX
 8
UNICORN
 10
2.9343
 20
2.1264
 30
5.9033
 70
32
 0
VERTEX
 8
UNICORN
 10
2.9579
 20
2.153
 30
5.9033
 70
32
 0
VERTEX
 8
UNICORN
 10
2.9841
 20
2.1775
 30
5.9033
 70
32
 0
VERTEX
 8
UNICORN
 10
3.0182
 20
2.204
 30
5.9033
 70
32
 0
VERTEX
 8
UNICORN
 10
3.0599
 20
2.2309
 30
5.9033
 70
32
 0
VERTEX
 8
UNICORN
 10
3.1078
 20
2.2563
 30
5.9033
 70
32
 0
VERTEX
 8
UNICORN
 10
3.1531
 20
2.2756
 30
5.9033
 70
32
 0
VERTEX
 8
UNICORN
 10
3.169
 20
2.2696
 30
5.9033
 70
32
 0
VERTEX
 8
UNICORN
 10
3.1833
 20
2.2619
 30
5.9033
 70
32
 0
VERTEX
 8
UNICORN
 10
3.1961
 20
2.2529
 30
5.9033
 70
32
 0
VERTEX
 8
UNICORN
 10
3.2077
 20
2.2425
 30
5.9033
 70
32
 0
VERTEX
 8
UNICORN
 10
3.2182
 20
2.231
 30
5.9033
 70
32
 0
VERTEX
 8
UNICORN
 10
3.2306
 20
2.2142
 30
5.9033
 70
32
 0
VERTEX
 8
UNICORN
 10
3.2441
 20
2.1912
 30
5.9033
 70
32
 0
VERTEX
 8
UNICORN
 10
3.267
 20
2.141
 30
5.9033
 70
32
 0
VERTEX
 8
UNICORN
 10
3.2843
 20
2.0998
 30
5.9033
 70
32
 0
VERTEX
 8
UNICORN
 10
3.3036
 20
2.0607
 30
5.9033
 70
32
 0
VERTEX
 8
UNICORN
 10
3.3116
 20
2.0849
 30
5.9033
 70
32
 0
VERTEX
 8
UNICORN
 10
3.3209
 20
2.1272
 30
5.9033
 70
32
 0
VERTEX
 8
UNICORN
 10
3.3451
 20
2.2643
 30
5.9033
 70
32
 0
VERTEX
 8
UNICORN
 10
3.353
 20
2.2886
 30
5.9033
 70
32
 0
VERTEX
 8
UNICORN
 10
3.3589
 20
2.3021
 30
5.9033
 70
32
 0
VERTEX
 8
UNICORN
 10
3.3681
 20
2.3186
 30
5.9033
 70
32
 0
VERTEX
 8
UNICORN
 10
3.5186
 20
2.3186
 30
5.9033
 70
32
 0
VERTEX
 8
UNICORN
 10
3.5611
 20
2.276
 30
5.9033
 70
32
 0
VERTEX
 8
UNICORN
 10
3.681
 20
2.1638
 30
5.9033
 70
32
 0
VERTEX
 8
UNICORN
 10
3.6953
 20
2.1471
 30
5.9033
 70
32
 0
VERTEX
 8
UNICORN
 10
3.712
 20
2.1252
 30
5.9033
 70
32
 0
VERTEX
 8
UNICORN
 10
3.7295
 20
2.1234
 30
5.9033
 70
32
 0
VERTEX
 8
UNICORN
 10
3.8624
 20
2.1008
 30
5.9033
 70
32
 0
VERTEX
 8
UNICORN
 10
3.8837
 20
2.101
 30
5.9033
 70
32
 0
VERTEX
 8
UNICORN
 10
3.8985
 20
2.103
 30
5.9033
 70
32
 0
VERTEX
 8
UNICORN
 10
3.9077
 20
2.1054
 30
5.9033
 70
32
 0
VERTEX
 8
UNICORN
 10
3.9162
 20
2.1087
 30
5.9033
 70
32
 0
VERTEX
 8
UNICORN
 10
3.924
 20
2.113
 30
5.9033
 70
32
 0
VERTEX
 8
UNICORN
 10
3.9311
 20
2.1183
 30
5.9033
 70
32
 0
VERTEX
 8
UNICORN
 10
3.9373
 20
2.1248
 30
5.9033
 70
32
 0
VERTEX
 8
UNICORN
 10
3.9425
 20
2.1326
 30
5.9033
 70
32
 0
VERTEX
 8
UNICORN
 10
3.9448
 20
2.1369
 30
5.9033
 70
32
 0
VERTEX
 8
UNICORN
 10
3.9485
 20
2.1467
 30
5.9033
 70
32
 0
VERTEX
 8
UNICORN
 10
3.8974
 20
2.1471
 30
5.9033
 70
32
 0
VERTEX
 8
UNICORN
 10
3.8682
 20
2.1502
 30
5.9033
 70
32
 0
VERTEX
 8
UNICORN
 10
3.8466
 20
2.1544
 30
5.9033
 70
32
 0
VERTEX
 8
UNICORN
 10
3.8269
 20
2.1605
 30
5.9033
 70
32
 0
VERTEX
 8
UNICORN
 10
3.8134
 20
2.1663
 30
5.9033
 70
32
 0
VERTEX
 8
UNICORN
 10
3.8011
 20
2.1734
 30
5.9033
 70
32
 0
VERTEX
 8
UNICORN
 10
3.7936
 20
2.1788
 30
5.9033
 70
32
 0
VERTEX
 8
UNICORN
 10
3.7867
 20
2.1848
 30
5.9033
 70
32
 0
VERTEX
 8
UNICORN
 10
3.7804
 20
2.1914
 30
5.9033
 70
32
 0
VERTEX
 8
UNICORN
 10
3.7748
 20
2.1986
 30
5.9033
 70
32
 0
VERTEX
 8
UNICORN
 10
3.7698
 20
2.2065
 30
5.9033
 70
32
 0
VERTEX
 8
UNICORN
 10
3.7655
 20
2.2151
 30
5.9033
 70
32
 0
VERTEX
 8
UNICORN
 10
3.7619
 20
2.2244
 30
5.9033
 70
32
 0
VERTEX
 8
UNICORN
 10
3.759
 20
2.2344
 30
5.9033
 70
32
 0
VERTEX
 8
UNICORN
 10
3.7561
 20
2.2509
 30
5.9033
 70
32
 0
VERTEX
 8
UNICORN
 10
3.7552
 20
2.2629
 30
5.9033
 70
32
 0
VERTEX
 8
UNICORN
 10
3.755
 20
2.2756
 30
5.9033
 70
32
 0
VERTEX
 8
UNICORN
 10
3.7747
 20
2.2733
 30
5.9033
 70
32
 0
VERTEX
 8
UNICORN
 10
3.7928
 20
2.2695
 30
5.9033
 70
32
 0
VERTEX
 8
UNICORN
 10
3.815
 20
2.2625
 30
5.9033
 70
32
 0
VERTEX
 8
UNICORN
 10
3.8353
 20
2.2535
 30
5.9033
 70
32
 0
VERTEX
 8
UNICORN
 10
3.8633
 20
2.2377
 30
5.9033
 70
32
 0
VERTEX
 8
UNICORN
 10
3.9398
 20
2.19
 30
5.9033
 70
32
 0
VERTEX
 8
UNICORN
 10
3.9601
 20
2.181
 30
5.9033
 70
32
 0
VERTEX
 8
UNICORN
 10
3.9821
 20
2.1738
 30
5.9033
 70
32
 0
VERTEX
 8
UNICORN
 10
3.994
 20
2.1711
 30
5.9033
 70
32
 0
VERTEX
 8
UNICORN
 10
4.013
 20
2.1682
 30
5.9033
 70
32
 0
VERTEX
 8
UNICORN
 10
4.0156
 20
2.1686
 30
5.9033
 70
32
 0
VERTEX
 8
UNICORN
 10
4.0179
 20
2.1692
 30
5.9033
 70
32
 0
VERTEX
 8
UNICORN
 10
4.0201
 20
2.1701
 30
5.9033
 70
32
 0
VERTEX
 8
UNICORN
 10
4.0221
 20
2.1711
 30
5.9033
 70
32
 0
VERTEX
 8
UNICORN
 10
4.024
 20
2.1722
 30
5.9033
 70
32
 0
VERTEX
 8
UNICORN
 10
4.0257
 20
2.1736
 30
5.9033
 70
32
 0
VERTEX
 8
UNICORN
 10
4.0272
 20
2.175
 30
5.9033
 70
32
 0
VERTEX
 8
UNICORN
 10
4.0286
 20
2.1766
 30
5.9033
 70
32
 0
VERTEX
 8
UNICORN
 10
4.031
 20
2.1802
 30
5.9033
 70
32
 0
VERTEX
 8
UNICORN
 10
4.033
 20
2.1843
 30
5.9033
 70
32
 0
VERTEX
 8
UNICORN
 10
4.0346
 20
2.1887
 30
5.9033
 70
32
 0
VERTEX
 8
UNICORN
 10
4.0364
 20
2.1959
 30
5.9033
 70
32
 0
VERTEX
 8
UNICORN
 10
4.0432
 20
2.2343
 30
5.9033
 70
32
 0
VERTEX
 8
UNICORN
 10
4.0448
 20
2.2387
 30
5.9033
 70
32
 0
VERTEX
 8
UNICORN
 10
4.0468
 20
2.2427
 30
5.9033
 70
32
 0
VERTEX
 8
UNICORN
 10
4.0493
 20
2.2463
 30
5.9033
 70
32
 0
VERTEX
 8
UNICORN
 10
4.0507
 20
2.2478
 30
5.9033
 70
32
 0
VERTEX
 8
UNICORN
 10
4.0522
 20
2.2493
 30
5.9033
 70
32
 0
VERTEX
 8
UNICORN
 10
4.0539
 20
2.2506
 30
5.9033
 70
32
 0
VERTEX
 8
UNICORN
 10
4.0558
 20
2.2517
 30
5.9033
 70
32
 0
VERTEX
 8
UNICORN
 10
4.0579
 20
2.2527
 30
5.9033
 70
32
 0
VERTEX
 8
UNICORN
 10
4.0601
 20
2.2535
 30
5.9033
 70
32
 0
VERTEX
 8
UNICORN
 10
4.0625
 20
2.2541
 30
5.9033
 70
32
 0
VERTEX
 8
UNICORN
 10
4.0678
 20
2.2548
 30
5.9033
 70
32
 0
VERTEX
 8
UNICORN
 10
4.0708
 20
2.2548
 30
5.9033
 70
32
 0
VERTEX
 8
UNICORN
 10
4.0775
 20
2.2541
 30
5.9033
 70
32
 0
VERTEX
 8
UNICORN
 10
4.314
 20
2.4046
 30
5.9033
 70
32
 0
VERTEX
 8
UNICORN
 10
4.4603
 20
2.4873
 30
5.9033
 70
32
 0
VERTEX
 8
UNICORN
 10
4.4791
 20
2.5028
 30
5.9033
 70
32
 0
VERTEX
 8
UNICORN
 10
4.4917
 20
2.5156
 30
5.9033
 70
32
 0
VERTEX
 8
UNICORN
 10
4.503
 20
2.5295
 30
5.9033
 70
32
 0
VERTEX
 8
UNICORN
 10
4.5125
 20
2.5446
 30
5.9033
 70
32
 0
VERTEX
 8
UNICORN
 10
4.5202
 20
2.561
 30
5.9033
 70
32
 0
VERTEX
 8
UNICORN
 10
4.5241
 20
2.5727
 30
5.9033
 70
32
 0
VERTEX
 8
UNICORN
 10
4.5271
 20
2.585
 30
5.9033
 70
32
 0
VERTEX
 8
UNICORN
 10
4.5289
 20
2.5981
 30
5.9033
 70
32
 0
VERTEX
 8
UNICORN
 10
4.5094
 20
2.607
 30
5.9033
 70
32
 0
VERTEX
 8
UNICORN
 10
4.4888
 20
2.6138
 30
5.9033
 70
32
 0
VERTEX
 8
UNICORN
 10
4.4673
 20
2.6187
 30
5.9033
 70
32
 0
VERTEX
 8
UNICORN
 10
4.4336
 20
2.6227
 30
5.9033
 70
32
 0
VERTEX
 8
UNICORN
 10
4.3865
 20
2.6233
 30
5.9033
 70
32
 0
VERTEX
 8
UNICORN
 10
4.3002
 20
2.6151
 30
5.9033
 70
32
 0
VERTEX
 8
UNICORN
 10
4.1282
 20
2.5952
 30
5.9033
 70
32
 0
VERTEX
 8
UNICORN
 10
4.083
 20
2.5962
 30
5.9033
 70
32
 0
VERTEX
 8
UNICORN
 10
4.0512
 20
2.6007
 30
5.9033
 70
32
 0
VERTEX
 8
UNICORN
 10
4.0312
 20
2.606
 30
5.9033
 70
32
 0
VERTEX
 8
UNICORN
 10
4.0122
 20
2.6131
 30
5.9033
 70
32
 0
VERTEX
 8
UNICORN
 10
3.9944
 20
2.6225
 30
5.9033
 70
32
 0
VERTEX
 8
UNICORN
 10
3.9859
 20
2.6281
 30
5.9033
 70
32
 0
VERTEX
 8
UNICORN
 10
3.97
 20
2.6411
 30
5.9033
 70
32
 0
VERTEX
 8
UNICORN
 10
3.9778
 20
2.6526
 30
5.9033
 70
32
 0
VERTEX
 8
UNICORN
 10
3.9866
 20
2.6632
 30
5.9033
 70
32
 0
VERTEX
 8
UNICORN
 10
3.9995
 20
2.6761
 30
5.9033
 70
32
 0
VERTEX
 8
UNICORN
 10
4.0173
 20
2.6905
 30
5.9033
 70
32
 0
VERTEX
 8
UNICORN
 10
4.1125
 20
2.7566
 30
5.9033
 70
32
 0
VERTEX
 8
UNICORN
 10
4.1254
 20
2.7694
 30
5.9033
 70
32
 0
VERTEX
 8
UNICORN
 10
4.1342
 20
2.78
 30
5.9033
 70
32
 0
VERTEX
 8
UNICORN
 10
4.142
 20
2.7916
 30
5.9033
 70
32
 0
VERTEX
 8
UNICORN
 10
4.04
 20
2.7783
 30
5.9033
 70
32
 0
VERTEX
 8
UNICORN
 10
3.9195
 20
2.7747
 30
5.9033
 70
32
 0
VERTEX
 8
UNICORN
 10
3.4307
 20
2.7971
 30
5.9033
 70
32
 0
VERTEX
 8
UNICORN
 10
3.3699
 20
2.7886
 30
5.9033
 70
32
 0
VERTEX
 8
UNICORN
 10
3.3269
 20
2.7776
 30
5.9033
 70
32
 0
VERTEX
 8
UNICORN
 10
3.2995
 20
2.7677
 30
5.9033
 70
32
 0
VERTEX
 8
UNICORN
 10
3.2606
 20
2.7486
 30
5.9033
 70
32
 0
VERTEX
 8
UNICORN
 10
3.2176
 20
2.7208
 30
5.9033
 70
32
 0
VERTEX
 8
UNICORN
 10
3.1716
 20
2.6848
 30
5.9033
 70
32
 0
VERTEX
 8
UNICORN
 10
2.9542
 20
2.4839
 30
5.9033
 70
32
 0
VERTEX
 8
UNICORN
 10
2.93
 20
2.4677
 30
5.9033
 70
32
 0
VERTEX
 8
UNICORN
 10
2.8952
 20
2.4476
 30
5.9033
 70
32
 0
VERTEX
 8
UNICORN
 10
2.875
 20
2.4962
 30
5.9033
 70
32
 0
VERTEX
 8
UNICORN
 10
2.8505
 20
2.5405
 30
5.9033
 70
32
 0
VERTEX
 8
UNICORN
 10
2.8221
 20
2.5809
 30
5.9033
 70
32
 0
VERTEX
 8
UNICORN
 10
2.7901
 20
2.6177
 30
5.9033
 70
32
 0
VERTEX
 8
UNICORN
 10
2.7364
 20
2.6672
 30
5.9033
 70
32
 0
VERTEX
 8
UNICORN
 10
2.677
 20
2.7109
 30
5.9033
 70
32
 0
VERTEX
 8
UNICORN
 10
2.569
 20
2.7749
 30
5.9033
 70
32
 0
VERTEX
 8
UNICORN
 10
2.2559
 20
2.9434
 30
5.9033
 70
32
 0
VERTEX
 8
UNICORN
 10
2.1962
 20
2.9869
 30
5.9033
 70
32
 0
VERTEX
 8
UNICORN
 10
2.1421
 20
3.036
 30
5.9033
 70
32
 0
VERTEX
 8
UNICORN
 10
2.1099
 20
3.0725
 30
5.9033
 70
32
 0
VERTEX
 8
UNICORN
 10
2.0811
 20
3.1125
 30
5.9033
 70
32
 0
VERTEX
 8
UNICORN
 10
2.0562
 20
3.1564
 30
5.9033
 70
32
 0
VERTEX
 8
UNICORN
 10
2.0357
 20
3.2047
 30
5.9033
 70
32
 0
VERTEX
 8
UNICORN
 10
2.0272
 20
3.2305
 30
5.9033
 70
32
 0
VERTEX
 8
UNICORN
 10
2.0138
 20
3.286
 30
5.9033
 70
32
 0
VERTEX
 8
UNICORN
 10
2.0287
 20
3.3123
 30
5.9033
 70
32
 0
VERTEX
 8
UNICORN
 10
2.0359
 20
3.3223
 30
5.9033
 70
32
 0
VERTEX
 8
UNICORN
 10
2.0424
 20
3.3297
 30
5.9033
 70
32
 0
VERTEX
 8
UNICORN
 10
2.0477
 20
3.3346
 30
5.9033
 70
32
 0
VERTEX
 8
UNICORN
 10
2.0536
 20
3.3391
 30
5.9033
 70
32
 0
VERTEX
 8
UNICORN
 10
2.06
 20
3.343
 30
5.9033
 70
32
 0
VERTEX
 8
UNICORN
 10
2.067
 20
3.3463
 30
5.9033
 70
32
 0
VERTEX
 8
UNICORN
 10
2.0747
 20
3.349
 30
5.9033
 70
32
 0
VERTEX
 8
UNICORN
 10
2.0831
 20
3.3508
 30
5.9033
 70
32
 0
VERTEX
 8
UNICORN
 10
2.0923
 20
3.3519
 30
5.9033
 70
32
 0
VERTEX
 8
UNICORN
 10
2.1024
 20
3.3522
 30
5.9033
 70
32
 0
VERTEX
 8
UNICORN
 10
2.1096
 20
3.3518
 30
5.9033
 70
32
 0
VERTEX
 8
UNICORN
 10
2.1213
 20
3.3505
 30
5.9033
 70
32
 0
VERTEX
 8
UNICORN
 10
2.1242
 20
3.3569
 30
5.9033
 70
32
 0
VERTEX
 8
UNICORN
 10
2.1261
 20
3.3632
 30
5.9033
 70
32
 0
VERTEX
 8
UNICORN
 10
2.1273
 20
3.3695
 30
5.9033
 70
32
 0
VERTEX
 8
UNICORN
 10
2.1277
 20
3.3757
 30
5.9033
 70
32
 0
VERTEX
 8
UNICORN
 10
2.1274
 20
3.3818
 30
5.9033
 70
32
 0
VERTEX
 8
UNICORN
 10
2.126
 20
3.3908
 30
5.9033
 70
32
 0
VERTEX
 8
UNICORN
 10
2.1237
 20
3.3995
 30
5.9033
 70
32
 0
VERTEX
 8
UNICORN
 10
2.1195
 20
3.4104
 30
5.9033
 70
32
 0
VERTEX
 8
UNICORN
 10
2.1058
 20
3.4417
 30
5.9033
 70
32
 0
VERTEX
 8
UNICORN
 10
2.1051
 20
3.445
 30
5.9033
 70
32
 0
VERTEX
 8
UNICORN
 10
2.105
 20
3.4466
 30
5.9033
 70
32
 0
VERTEX
 8
UNICORN
 10
2.105
 20
3.448
 30
5.9033
 70
32
 0
VERTEX
 8
UNICORN
 10
2.1052
 20
3.4494
 30
5.9033
 70
32
 0
VERTEX
 8
UNICORN
 10
2.1056
 20
3.4507
 30
5.9033
 70
32
 0
VERTEX
 8
UNICORN
 10
2.1061
 20
3.4519
 30
5.9033
 70
32
 0
VERTEX
 8
UNICORN
 10
2.1069
 20
3.4529
 30
5.9033
 70
32
 0
VERTEX
 8
UNICORN
 10
2.1078
 20
3.4539
 30
5.9033
 70
32
 0
VERTEX
 8
UNICORN
 10
2.109
 20
3.4548
 30
5.9033
 70
32
 0
VERTEX
 8
UNICORN
 10
2.1104
 20
3.4556
 30
5.9033
 70
32
 0
VERTEX
 8
UNICORN
 10
2.1121
 20
3.4563
 30
5.9033
 70
32
 0
VERTEX
 8
UNICORN
 10
2.114
 20
3.4569
 30
5.9033
 70
32
 0
VERTEX
 8
UNICORN
 10
2.1161
 20
3.4573
 30
5.9033
 70
32
 0
VERTEX
 8
UNICORN
 10
2.1213
 20
3.458
 30
5.9033
 70
32
 0
VERTEX
 8
UNICORN
 10
2.1283
 20
3.4585
 30
5.9033
 70
32
 0
VERTEX
 8
UNICORN
 10
2.1346
 20
3.4583
 30
5.9033
 70
32
 0
VERTEX
 8
UNICORN
 10
2.1403
 20
3.4576
 30
5.9033
 70
32
 0
VERTEX
 8
UNICORN
 10
2.1456
 20
3.4565
 30
5.9033
 70
32
 0
VERTEX
 8
UNICORN
 10
2.1521
 20
3.4543
 30
5.9033
 70
32
 0
VERTEX
 8
UNICORN
 10
2.1595
 20
3.451
 30
5.9033
 70
32
 0
VERTEX
 8
UNICORN
 10
2.1809
 20
3.4402
 30
5.9033
 70
32
 0
VERTEX
 8
UNICORN
 10
2.1874
 20
3.4381
 30
5.9033
 70
32
 0
VERTEX
 8
UNICORN
 10
2.1928
 20
3.437
 30
5.9033
 70
32
 0
VERTEX
 8
UNICORN
 10
2.1986
 20
3.4364
 30
5.9033
 70
32
 0
VERTEX
 8
UNICORN
 10
2.2028
 20
3.4363
 30
5.9033
 70
32
 0
VERTEX
 8
UNICORN
 10
2.2073
 20
3.4365
 30
5.9033
 70
32
 0
VERTEX
 8
UNICORN
 10
2.2316
 20
3.5257
 30
5.9033
 70
32
 0
VERTEX
 8
UNICORN
 10
2.2379
 20
3.54
 30
5.9033
 70
32
 0
VERTEX
 8
UNICORN
 10
2.2435
 20
3.5498
 30
5.9033
 70
32
 0
VERTEX
 8
UNICORN
 10
2.25
 20
3.5588
 30
5.9033
 70
32
 0
VERTEX
 8
UNICORN
 10
2.2549
 20
3.5642
 30
5.9033
 70
32
 0
VERTEX
 8
UNICORN
 10
2.2603
 20
3.5692
 30
5.9033
 70
32
 0
VERTEX
 8
UNICORN
 10
2.2662
 20
3.5736
 30
5.9033
 70
32
 0
VERTEX
 8
UNICORN
 10
2.2727
 20
3.5775
 30
5.9033
 70
32
 0
VERTEX
 8
UNICORN
 10
2.2797
 20
3.5807
 30
5.9033
 70
32
 0
VERTEX
 8
UNICORN
 10
2.2874
 20
3.5833
 30
5.9033
 70
32
 0
VERTEX
 8
UNICORN
 10
2.2958
 20
3.5853
 30
5.9033
 70
32
 0
VERTEX
 8
UNICORN
 10
2.3049
 20
3.5865
 30
5.9033
 70
32
 0
VERTEX
 8
UNICORN
 10
2.3148
 20
3.5869
 30
5.9033
 70
32
 0
VERTEX
 8
UNICORN
 10
2.3039
 20
3.6343
 30
5.9033
 70
32
 0
VERTEX
 8
UNICORN
 10
2.3035
 20
3.6394
 30
5.9033
 70
32
 0
VERTEX
 8
UNICORN
 10
2.3037
 20
3.6444
 30
5.9033
 70
32
 0
VERTEX
 8
UNICORN
 10
2.307
 20
3.662
 30
5.9033
 70
32
 0
VERTEX
 8
UNICORN
 10
2.3148
 20
3.6944
 30
5.9033
 70
32
 0
VERTEX
 8
UNICORN
 10
2.3217
 20
3.6949
 30
5.9033
 70
32
 0
VERTEX
 8
UNICORN
 10
2.3281
 20
3.6948
 30
5.9033
 70
32
 0
VERTEX
 8
UNICORN
 10
2.3338
 20
3.6941
 30
5.9033
 70
32
 0
VERTEX
 8
UNICORN
 10
2.3391
 20
3.6929
 30
5.9033
 70
32
 0
VERTEX
 8
UNICORN
 10
2.3455
 20
3.6908
 30
5.9033
 70
32
 0
VERTEX
 8
UNICORN
 10
2.3529
 20
3.6874
 30
5.9033
 70
32
 0
VERTEX
 8
UNICORN
 10
2.3744
 20
3.6767
 30
5.9033
 70
32
 0
VERTEX
 8
UNICORN
 10
2.3809
 20
3.6746
 30
5.9033
 70
32
 0
VERTEX
 8
UNICORN
 10
2.3862
 20
3.6735
 30
5.9033
 70
32
 0
VERTEX
 8
UNICORN
 10
2.3921
 20
3.6728
 30
5.9033
 70
32
 0
VERTEX
 8
UNICORN
 10
2.3963
 20
3.6727
 30
5.9033
 70
32
 0
VERTEX
 8
UNICORN
 10
2.4008
 20
3.6729
 30
5.9033
 70
32
 0
VERTEX
 8
UNICORN
 10
2.4048
 20
3.6938
 30
5.9033
 70
32
 0
VERTEX
 8
UNICORN
 10
2.4064
 20
3.7136
 30
5.9033
 70
32
 0
VERTEX
 8
UNICORN
 10
2.4058
 20
3.7325
 30
5.9033
 70
32
 0
VERTEX
 8
UNICORN
 10
2.4035
 20
3.7504
 30
5.9033
 70
32
 0
VERTEX
 8
UNICORN
 10
2.3984
 20
3.7731
 30
5.9033
 70
32
 0
VERTEX
 8
UNICORN
 10
2.386
 20
3.8097
 30
5.9033
 70
32
 0
VERTEX
 8
UNICORN
 10
2.3693
 20
3.857
 30
5.9033
 70
32
 0
VERTEX
 8
UNICORN
 10
2.3663
 20
3.8704
 30
5.9033
 70
32
 0
VERTEX
 8
UNICORN
 10
2.3649
 20
3.8835
 30
5.9033
 70
32
 0
VERTEX
 8
UNICORN
 10
2.365
 20
3.8922
 30
5.9033
 70
32
 0
VERTEX
 8
UNICORN
 10
2.3661
 20
3.9008
 30
5.9033
 70
32
 0
VERTEX
 8
UNICORN
 10
2.3683
 20
3.9094
 30
5.9033
 70
32
 0
VERTEX
 8
UNICORN
 10
2.3717
 20
3.918
 30
5.9033
 70
32
 0
VERTEX
 8
UNICORN
 10
2.3739
 20
3.9223
 30
5.9033
 70
32
 0
VERTEX
 8
UNICORN
 10
2.3793
 20
3.9309
 30
5.9033
 70
32
 0
VERTEX
 8
UNICORN
 10
2.3933
 20
3.9294
 30
5.9033
 70
32
 0
VERTEX
 8
UNICORN
 10
2.4094
 20
3.9262
 30
5.9033
 70
32
 0
VERTEX
 8
UNICORN
 10
2.4271
 20
3.9207
 30
5.9033
 70
32
 0
VERTEX
 8
UNICORN
 10
2.4996
 20
3.8926
 30
5.9033
 70
32
 0
VERTEX
 8
UNICORN
 10
2.5124
 20
3.8899
 30
5.9033
 70
32
 0
VERTEX
 8
UNICORN
 10
2.5297
 20
3.8879
 30
5.9033
 70
32
 0
VERTEX
 8
UNICORN
 10
2.5262
 20
3.9273
 30
5.9033
 70
32
 0
VERTEX
 8
UNICORN
 10
2.5194
 20
3.9635
 30
5.9033
 70
32
 0
VERTEX
 8
UNICORN
 10
2.5078
 20
4.0035
 30
5.9033
 70
32
 0
VERTEX
 8
UNICORN
 10
2.4856
 20
4.0587
 30
5.9033
 70
32
 0
VERTEX
 8
UNICORN
 10
2.4528
 20
4.1291
 30
5.9033
 70
32
 0
VERTEX
 8
UNICORN
 10
2.4223
 20
4.2103
 30
5.9033
 70
32
 0
VERTEX
 8
UNICORN
 10
2.4509
 20
4.2299
 30
5.9033
 70
32
 0
VERTEX
 8
UNICORN
 10
2.4603
 20
4.2381
 30
5.9033
 70
32
 0
VERTEX
 8
UNICORN
 10
2.4654
 20
4.2438
 30
5.9033
 70
32
 0
VERTEX
 8
UNICORN
 10
2.468
 20
4.2476
 30
5.9033
 70
32
 0
VERTEX
 8
UNICORN
 10
2.4699
 20
4.2513
 30
5.9033
 70
32
 0
VERTEX
 8
UNICORN
 10
2.4713
 20
4.255
 30
5.9033
 70
32
 0
VERTEX
 8
UNICORN
 10
2.472
 20
4.2588
 30
5.9033
 70
32
 0
VERTEX
 8
UNICORN
 10
2.4723
 20
4.2627
 30
5.9033
 70
32
 0
VERTEX
 8
UNICORN
 10
2.472
 20
4.2668
 30
5.9033
 70
32
 0
VERTEX
 8
UNICORN
 10
2.4712
 20
4.271
 30
5.9033
 70
32
 0
VERTEX
 8
UNICORN
 10
2.4693
 20
4.2779
 30
5.9033
 70
32
 0
VERTEX
 8
UNICORN
 10
2.4589
 20
4.3033
 30
5.9033
 70
32
 0
VERTEX
 8
UNICORN
 10
2.4437
 20
4.3393
 30
5.9033
 70
32
 0
VERTEX
 8
UNICORN
 10
2.4726
 20
4.3496
 30
5.9033
 70
32
 0
VERTEX
 8
UNICORN
 10
2.4954
 20
4.3603
 30
5.9033
 70
32
 0
VERTEX
 8
UNICORN
 10
2.5128
 20
4.3709
 30
5.9033
 70
32
 0
VERTEX
 8
UNICORN
 10
2.5254
 20
4.3806
 30
5.9033
 70
32
 0
VERTEX
 8
UNICORN
 10
2.5368
 20
4.3916
 30
5.9033
 70
32
 0
VERTEX
 8
UNICORN
 10
2.5445
 20
4.4007
 30
5.9033
 70
32
 0
VERTEX
 8
UNICORN
 10
2.5513
 20
4.4106
 30
5.9033
 70
32
 0
VERTEX
 8
UNICORN
 10
2.5573
 20
4.4214
 30
5.9033
 70
32
 0
VERTEX
 8
UNICORN
 10
2.5624
 20
4.433
 30
5.9033
 70
32
 0
VERTEX
 8
UNICORN
 10
2.5666
 20
4.4457
 30
5.9033
 70
32
 0
VERTEX
 8
UNICORN
 10
2.5697
 20
4.4593
 30
5.9033
 70
32
 0
VERTEX
 8
UNICORN
 10
2.5718
 20
4.474
 30
5.9033
 70
32
 0
VERTEX
 8
UNICORN
 10
2.5727
 20
4.4898
 30
5.9033
 70
32
 0
VERTEX
 8
UNICORN
 10
2.4869
 20
4.49
 30
5.9033
 70
32
 0
VERTEX
 8
UNICORN
 10
2.4639
 20
4.4927
 30
5.9033
 70
32
 0
VERTEX
 8
UNICORN
 10
2.4497
 20
4.4958
 30
5.9033
 70
32
 0
VERTEX
 8
UNICORN
 10
2.4399
 20
4.4988
 30
5.9033
 70
32
 0
VERTEX
 8
UNICORN
 10
2.4308
 20
4.5027
 30
5.9033
 70
32
 0
VERTEX
 8
UNICORN
 10
2.4226
 20
4.5073
 30
5.9033
 70
32
 0
VERTEX
 8
UNICORN
 10
2.4176
 20
4.5109
 30
5.9033
 70
32
 0
VERTEX
 8
UNICORN
 10
2.4131
 20
4.515
 30
5.9033
 70
32
 0
VERTEX
 8
UNICORN
 10
2.4089
 20
4.5195
 30
5.9033
 70
32
 0
VERTEX
 8
UNICORN
 10
2.4053
 20
4.5244
 30
5.9033
 70
32
 0
VERTEX
 8
UNICORN
 10
2.4037
 20
4.5271
 30
5.9033
 70
32
 0
VERTEX
 8
UNICORN
 10
2.4008
 20
4.5328
 30
5.9033
 70
32
 0
VERTEX
 8
UNICORN
 10
2.4056
 20
4.5966
 30
5.9033
 70
32
 0
VERTEX
 8
UNICORN
 10
2.4094
 20
4.6346
 30
5.9033
 70
32
 0
VERTEX
 8
UNICORN
 10
2.4091
 20
4.6503
 30
5.9033
 70
32
 0
VERTEX
 8
UNICORN
 10
2.4064
 20
4.6733
 30
5.9033
 70
32
 0
VERTEX
 8
UNICORN
 10
2.4008
 20
4.7048
 30
5.9033
 70
32
 0
VERTEX
 8
UNICORN
 10
2.4215
 20
4.7072
 30
5.9033
 70
32
 0
VERTEX
 8
UNICORN
 10
2.4364
 20
4.7104
 30
5.9033
 70
32
 0
VERTEX
 8
UNICORN
 10
2.448
 20
4.7142
 30
5.9033
 70
32
 0
VERTEX
 8
UNICORN
 10
2.4569
 20
4.7182
 30
5.9033
 70
32
 0
VERTEX
 8
UNICORN
 10
2.4635
 20
4.722
 30
5.9033
 70
32
 0
VERTEX
 8
UNICORN
 10
2.4695
 20
4.7263
 30
5.9033
 70
32
 0
VERTEX
 8
UNICORN
 10
2.4749
 20
4.7312
 30
5.9033
 70
32
 0
VERTEX
 8
UNICORN
 10
2.4786
 20
4.7352
 30
5.9033
 70
32
 0
VERTEX
 8
UNICORN
 10
2.482
 20
4.7396
 30
5.9033
 70
32
 0
VERTEX
 8
UNICORN
 10
2.484
 20
4.7427
 30
5.9033
 70
32
 0
VERTEX
 8
UNICORN
 10
2.4867
 20
4.7478
 30
5.9033
 70
32
 0
VERTEX
 8
UNICORN
 10
2.4669
 20
4.7571
 30
5.9033
 70
32
 0
VERTEX
 8
UNICORN
 10
2.4401
 20
4.7668
 30
5.9033
 70
32
 0
VERTEX
 8
UNICORN
 10
2.3878
 20
4.7804
 30
5.9033
 70
32
 0
VERTEX
 8
UNICORN
 10
2.2631
 20
4.8092
 30
5.9033
 70
32
 0
VERTEX
 8
UNICORN
 10
2.2364
 20
4.819
 30
5.9033
 70
32
 0
VERTEX
 8
UNICORN
 10
2.2213
 20
4.8259
 30
5.9033
 70
32
 0
VERTEX
 8
UNICORN
 10
2.2073
 20
4.8337
 30
5.9033
 70
32
 0
VERTEX
 8
UNICORN
 10
2.2048
 20
4.8421
 30
5.9033
 70
32
 0
VERTEX
 8
UNICORN
 10
2.2034
 20
4.8503
 30
5.9033
 70
32
 0
VERTEX
 8
UNICORN
 10
2.2029
 20
4.8585
 30
5.9033
 70
32
 0
VERTEX
 8
UNICORN
 10
2.2031
 20
4.8666
 30
5.9033
 70
32
 0
VERTEX
 8
UNICORN
 10
2.2048
 20
4.8786
 30
5.9033
 70
32
 0
VERTEX
 8
UNICORN
 10
2.2088
 20
4.8942
 30
5.9033
 70
32
 0
VERTEX
 8
UNICORN
 10
2.2302
 20
4.9547
 30
5.9033
 70
32
 0
VERTEX
 8
UNICORN
 10
2.2312
 20
4.9611
 30
5.9033
 70
32
 0
VERTEX
 8
UNICORN
 10
2.2317
 20
4.9673
 30
5.9033
 70
32
 0
VERTEX
 8
UNICORN
 10
2.2313
 20
4.9734
 30
5.9033
 70
32
 0
VERTEX
 8
UNICORN
 10
2.2301
 20
4.9793
 30
5.9033
 70
32
 0
VERTEX
 8
UNICORN
 10
2.2279
 20
4.985
 30
5.9033
 70
32
 0
VERTEX
 8
UNICORN
 10
2.2246
 20
4.9905
 30
5.9033
 70
32
 0
VERTEX
 8
UNICORN
 10
2.2202
 20
4.9957
 30
5.9033
 70
32
 0
VERTEX
 8
UNICORN
 10
2.2144
 20
5.0008
 30
5.9033
 70
32
 0
VERTEX
 8
UNICORN
 10
2.2073
 20
5.0057
 30
5.9033
 70
32
 0
VERTEX
 8
UNICORN
 10
2.199
 20
4.9992
 30
5.9033
 70
32
 0
VERTEX
 8
UNICORN
 10
2.1532
 20
4.9579
 30
5.9033
 70
32
 0
VERTEX
 8
UNICORN
 10
2.1468
 20
4.954
 30
5.9033
 70
32
 0
VERTEX
 8
UNICORN
 10
2.1404
 20
4.951
 30
5.9033
 70
32
 0
VERTEX
 8
UNICORN
 10
2.136
 20
4.9496
 30
5.9033
 70
32
 0
VERTEX
 8
UNICORN
 10
2.1317
 20
4.9487
 30
5.9033
 70
32
 0
VERTEX
 8
UNICORN
 10
2.1272
 20
4.9485
 30
5.9033
 70
32
 0
VERTEX
 8
UNICORN
 10
2.1228
 20
4.9489
 30
5.9033
 70
32
 0
VERTEX
 8
UNICORN
 10
2.1183
 20
4.9501
 30
5.9033
 70
32
 0
VERTEX
 8
UNICORN
 10
2.1137
 20
4.9519
 30
5.9033
 70
32
 0
VERTEX
 8
UNICORN
 10
2.1092
 20
4.9547
 30
5.9033
 70
32
 0
VERTEX
 8
UNICORN
 10
2.1045
 20
4.9582
 30
5.9033
 70
32
 0
VERTEX
 8
UNICORN
 10
2.0998
 20
4.9627
 30
5.9033
 70
32
 0
VERTEX
 8
UNICORN
 10
2.0986
 20
4.9873
 30
5.9033
 70
32
 0
VERTEX
 8
UNICORN
 10
2.0953
 20
5.0098
 30
5.9033
 70
32
 0
VERTEX
 8
UNICORN
 10
2.0883
 20
5.0389
 30
5.9033
 70
32
 0
VERTEX
 8
UNICORN
 10
2.0613
 20
5.1306
 30
5.9033
 70
32
 0
VERTEX
 8
UNICORN
 10
2.058
 20
5.1531
 30
5.9033
 70
32
 0
VERTEX
 8
UNICORN
 10
2.0568
 20
5.1777
 30
5.9033
 70
32
 0
VERTEX
 8
UNICORN
 10
2.049
 20
5.1794
 30
5.9033
 70
32
 0
VERTEX
 8
UNICORN
 10
2.0422
 20
5.1802
 30
5.9033
 70
32
 0
VERTEX
 8
UNICORN
 10
2.0363
 20
5.1802
 30
5.9033
 70
32
 0
VERTEX
 8
UNICORN
 10
2.0312
 20
5.1793
 30
5.9033
 70
32
 0
VERTEX
 8
UNICORN
 10
2.0289
 20
5.1785
 30
5.9033
 70
32
 0
VERTEX
 8
UNICORN
 10
2.0268
 20
5.1776
 30
5.9033
 70
32
 0
VERTEX
 8
UNICORN
 10
2.0248
 20
5.1766
 30
5.9033
 70
32
 0
VERTEX
 8
UNICORN
 10
2.023
 20
5.1754
 30
5.9033
 70
32
 0
VERTEX
 8
UNICORN
 10
2.0214
 20
5.174
 30
5.9033
 70
32
 0
VERTEX
 8
UNICORN
 10
2.0185
 20
5.1709
 30
5.9033
 70
32
 0
VERTEX
 8
UNICORN
 10
2.016
 20
5.1673
 30
5.9033
 70
32
 0
VERTEX
 8
UNICORN
 10
2.0139
 20
5.1634
 30
5.9033
 70
32
 0
VERTEX
 8
UNICORN
 10
2.0113
 20
5.157
 30
5.9033
 70
32
 0
VERTEX
 8
UNICORN
 10
2.0023
 20
5.1299
 30
5.9033
 70
32
 0
VERTEX
 8
UNICORN
 10
2.0002
 20
5.126
 30
5.9033
 70
32
 0
VERTEX
 8
UNICORN
 10
1.9977
 20
5.1224
 30
5.9033
 70
32
 0
VERTEX
 8
UNICORN
 10
1.9948
 20
5.1193
 30
5.9033
 70
32
 0
VERTEX
 8
UNICORN
 10
1.9932
 20
5.1179
 30
5.9033
 70
32
 0
VERTEX
 8
UNICORN
 10
1.9914
 20
5.1167
 30
5.9033
 70
32
 0
VERTEX
 8
UNICORN
 10
1.9895
 20
5.1156
 30
5.9033
 70
32
 0
VERTEX
 8
UNICORN
 10
1.9874
 20
5.1147
 30
5.9033
 70
32
 0
VERTEX
 8
UNICORN
 10
1.9851
 20
5.114
 30
5.9033
 70
32
 0
VERTEX
 8
UNICORN
 10
1.9827
 20
5.1134
 30
5.9033
 70
32
 0
VERTEX
 8
UNICORN
 10
1.9772
 20
5.1129
 30
5.9033
 70
32
 0
VERTEX
 8
UNICORN
 10
1.9708
 20
5.1132
 30
5.9033
 70
32
 0
VERTEX
 8
UNICORN
 10
1.8919
 20
5.1134
 30
5.9033
 70
32
 0
VERTEX
 8
UNICORN
 10
1.88
 20
5.1153
 30
5.9033
 70
32
 0
VERTEX
 8
UNICORN
 10
1.8719
 20
5.1174
 30
5.9033
 70
32
 0
VERTEX
 8
UNICORN
 10
1.8645
 20
5.1203
 30
5.9033
 70
32
 0
VERTEX
 8
UNICORN
 10
1.86
 20
5.1227
 30
5.9033
 70
32
 0
VERTEX
 8
UNICORN
 10
1.8559
 20
5.1256
 30
5.9033
 70
32
 0
VERTEX
 8
UNICORN
 10
1.8523
 20
5.1288
 30
5.9033
 70
32
 0
VERTEX
 8
UNICORN
 10
1.8492
 20
5.1326
 30
5.9033
 70
32
 0
VERTEX
 8
UNICORN
 10
1.8466
 20
5.1369
 30
5.9033
 70
32
 0
VERTEX
 8
UNICORN
 10
1.8445
 20
5.1416
 30
5.9033
 70
32
 0
VERTEX
 8
UNICORN
 10
1.843
 20
5.147
 30
5.9033
 70
32
 0
VERTEX
 8
UNICORN
 10
1.8425
 20
5.1499
 30
5.9033
 70
32
 0
VERTEX
 8
UNICORN
 10
1.8418
 20
5.1562
 30
5.9033
 70
32
 0
VERTEX
 8
UNICORN
 10
1.8388
 20
5.1653
 30
5.9033
 70
32
 0
VERTEX
 8
UNICORN
 10
1.8372
 20
5.1729
 30
5.9033
 70
32
 0
VERTEX
 8
UNICORN
 10
1.8368
 20
5.1793
 30
5.9033
 70
32
 0
VERTEX
 8
UNICORN
 10
1.8371
 20
5.182
 30
5.9033
 70
32
 0
VERTEX
 8
UNICORN
 10
1.8376
 20
5.1845
 30
5.9033
 70
32
 0
VERTEX
 8
UNICORN
 10
1.8384
 20
5.1867
 30
5.9033
 70
32
 0
VERTEX
 8
UNICORN
 10
1.8395
 20
5.1887
 30
5.9033
 70
32
 0
VERTEX
 8
UNICORN
 10
1.8407
 20
5.1904
 30
5.9033
 70
32
 0
VERTEX
 8
UNICORN
 10
1.8422
 20
5.1919
 30
5.9033
 70
32
 0
VERTEX
 8
UNICORN
 10
1.8439
 20
5.1933
 30
5.9033
 70
32
 0
VERTEX
 8
UNICORN
 10
1.8458
 20
5.1944
 30
5.9033
 70
32
 0
VERTEX
 8
UNICORN
 10
1.8478
 20
5.1954
 30
5.9033
 70
32
 0
VERTEX
 8
UNICORN
 10
1.8523
 20
5.1969
 30
5.9033
 70
32
 0
VERTEX
 8
UNICORN
 10
1.8573
 20
5.1979
 30
5.9033
 70
32
 0
VERTEX
 8
UNICORN
 10
1.8683
 20
5.1989
 30
5.9033
 70
32
 0
VERTEX
 8
UNICORN
 10
1.8908
 20
5.2005
 30
5.9033
 70
32
 0
VERTEX
 8
UNICORN
 10
1.8958
 20
5.2015
 30
5.9033
 70
32
 0
VERTEX
 8
UNICORN
 10
1.9004
 20
5.203
 30
5.9033
 70
32
 0
VERTEX
 8
UNICORN
 10
1.9024
 20
5.204
 30
5.9033
 70
32
 0
VERTEX
 8
UNICORN
 10
1.9043
 20
5.2051
 30
5.9033
 70
32
 0
VERTEX
 8
UNICORN
 10
1.906
 20
5.2064
 30
5.9033
 70
32
 0
VERTEX
 8
UNICORN
 10
1.9075
 20
5.2079
 30
5.9033
 70
32
 0
VERTEX
 8
UNICORN
 10
1.9087
 20
5.2097
 30
5.9033
 70
32
 0
VERTEX
 8
UNICORN
 10
1.9098
 20
5.2116
 30
5.9033
 70
32
 0
VERTEX
 8
UNICORN
 10
1.9106
 20
5.2139
 30
5.9033
 70
32
 0
VERTEX
 8
UNICORN
 10
1.9111
 20
5.2163
 30
5.9033
 70
32
 0
VERTEX
 8
UNICORN
 10
1.9114
 20
5.2191
 30
5.9033
 70
32
 0
VERTEX
 8
UNICORN
 10
1.9114
 20
5.2221
 30
5.9033
 70
32
 0
VERTEX
 8
UNICORN
 10
1.9104
 20
5.2291
 30
5.9033
 70
32
 0
VERTEX
 8
UNICORN
 10
1.9094
 20
5.2331
 30
5.9033
 70
32
 0
VERTEX
 8
UNICORN
 10
1.9063
 20
5.2422
 30
5.9033
 70
32
 0
VERTEX
 8
UNICORN
 10
1.9045
 20
5.2455
 30
5.9033
 70
32
 0
VERTEX
 8
UNICORN
 10
1.9023
 20
5.2485
 30
5.9033
 70
32
 0
VERTEX
 8
UNICORN
 10
1.8998
 20
5.2511
 30
5.9033
 70
32
 0
VERTEX
 8
UNICORN
 10
1.897
 20
5.2534
 30
5.9033
 70
32
 0
VERTEX
 8
UNICORN
 10
1.8938
 20
5.2555
 30
5.9033
 70
32
 0
VERTEX
 8
UNICORN
 10
1.8904
 20
5.2572
 30
5.9033
 70
32
 0
VERTEX
 8
UNICORN
 10
1.8829
 20
5.26
 30
5.9033
 70
32
 0
VERTEX
 8
UNICORN
 10
1.8744
 20
5.2618
 30
5.9033
 70
32
 0
VERTEX
 8
UNICORN
 10
1.8603
 20
5.2632
 30
5.9033
 70
32
 0
VERTEX
 8
UNICORN
 10
1.8344
 20
5.2631
 30
5.9033
 70
32
 0
VERTEX
 8
UNICORN
 10
1.7762
 20
5.2617
 30
5.9033
 70
32
 0
VERTEX
 8
UNICORN
 10
1.7625
 20
5.2634
 30
5.9033
 70
32
 0
VERTEX
 8
UNICORN
 10
1.7543
 20
5.2655
 30
5.9033
 70
32
 0
VERTEX
 8
UNICORN
 10
1.747
 20
5.2686
 30
5.9033
 70
32
 0
VERTEX
 8
UNICORN
 10
1.7438
 20
5.2705
 30
5.9033
 70
32
 0
VERTEX
 8
UNICORN
 10
1.7408
 20
5.2727
 30
5.9033
 70
32
 0
VERTEX
 8
UNICORN
 10
1.7382
 20
5.2752
 30
5.9033
 70
32
 0
VERTEX
 8
UNICORN
 10
1.7359
 20
5.2781
 30
5.9033
 70
32
 0
VERTEX
 8
UNICORN
 10
1.7339
 20
5.2812
 30
5.9033
 70
32
 0
VERTEX
 8
UNICORN
 10
1.7323
 20
5.2848
 30
5.9033
 70
32
 0
VERTEX
 8
UNICORN
 10
1.731
 20
5.2887
 30
5.9033
 70
32
 0
VERTEX
 8
UNICORN
 10
1.7302
 20
5.293
 30
5.9033
 70
32
 0
VERTEX
 8
UNICORN
 10
1.7297
 20
5.2977
 30
5.9033
 70
32
 0
VERTEX
 8
UNICORN
 10
1.7302
 20
5.3085
 30
5.9033
 70
32
 0
VERTEX
 8
UNICORN
 10
1.7311
 20
5.3146
 30
5.9033
 70
32
 0
VERTEX
 8
UNICORN
 10
1.7344
 20
5.3282
 30
5.9033
 70
32
 0
VERTEX
 8
UNICORN
 10
1.7253
 20
5.3287
 30
5.9033
 70
32
 0
VERTEX
 8
UNICORN
 10
1.7171
 20
5.3283
 30
5.9033
 70
32
 0
VERTEX
 8
UNICORN
 10
1.7097
 20
5.327
 30
5.9033
 70
32
 0
VERTEX
 8
UNICORN
 10
1.7031
 20
5.3251
 30
5.9033
 70
32
 0
VERTEX
 8
UNICORN
 10
1.6971
 20
5.3224
 30
5.9033
 70
32
 0
VERTEX
 8
UNICORN
 10
1.6917
 20
5.3192
 30
5.9033
 70
32
 0
VERTEX
 8
UNICORN
 10
1.6868
 20
5.3156
 30
5.9033
 70
32
 0
VERTEX
 8
UNICORN
 10
1.6801
 20
5.3093
 30
5.9033
 70
32
 0
VERTEX
 8
UNICORN
 10
1.6702
 20
5.2977
 30
5.9033
 70
32
 0
VERTEX
 8
UNICORN
 10
1.6546
 20
5.279
 30
5.9033
 70
32
 0
VERTEX
 8
UNICORN
 10
1.6478
 20
5.2728
 30
5.9033
 70
32
 0
VERTEX
 8
UNICORN
 10
1.6429
 20
5.2692
 30
5.9033
 70
32
 0
VERTEX
 8
UNICORN
 10
1.6374
 20
5.2661
 30
5.9033
 70
32
 0
VERTEX
 8
UNICORN
 10
1.6313
 20
5.2635
 30
5.9033
 70
32
 0
VERTEX
 8
UNICORN
 10
1.6246
 20
5.2616
 30
5.9033
 70
32
 0
VERTEX
 8
UNICORN
 10
1.6172
 20
5.2605
 30
5.9033
 70
32
 0
VERTEX
 8
UNICORN
 10
1.6089
 20
5.2602
 30
5.9033
 70
32
 0
VERTEX
 8
UNICORN
 10
1.5996
 20
5.2608
 30
5.9033
 70
32
 0
VERTEX
 8
UNICORN
 10
1.5839
 20
5.2637
 30
5.9033
 70
32
 0
VERTEX
 8
UNICORN
 10
1.5827
 20
5.2689
 30
5.9033
 70
32
 0
VERTEX
 8
UNICORN
 10
1.581
 20
5.2737
 30
5.9033
 70
32
 0
VERTEX
 8
UNICORN
 10
1.5789
 20
5.2781
 30
5.9033
 70
32
 0
VERTEX
 8
UNICORN
 10
1.5765
 20
5.2821
 30
5.9033
 70
32
 0
VERTEX
 8
UNICORN
 10
1.5728
 20
5.287
 30
5.9033
 70
32
 0
VERTEX
 8
UNICORN
 10
1.5666
 20
5.2937
 30
5.9033
 70
32
 0
VERTEX
 8
UNICORN
 10
1.5506
 20
5.3099
 30
5.9033
 70
32
 0
VERTEX
 8
UNICORN
 10
1.5469
 20
5.3148
 30
5.9033
 70
32
 0
VERTEX
 8
UNICORN
 10
1.5445
 20
5.3189
 30
5.9033
 70
32
 0
VERTEX
 8
UNICORN
 10
1.5425
 20
5.3233
 30
5.9033
 70
32
 0
VERTEX
 8
UNICORN
 10
1.5409
 20
5.3282
 30
5.9033
 70
32
 0
VERTEX
 8
UNICORN
 10
1.5416
 20
5.3403
 30
5.9033
 70
32
 0
VERTEX
 8
UNICORN
 10
1.5436
 20
5.3512
 30
5.9033
 70
32
 0
VERTEX
 8
UNICORN
 10
1.5468
 20
5.3609
 30
5.9033
 70
32
 0
VERTEX
 8
UNICORN
 10
1.5509
 20
5.3697
 30
5.9033
 70
32
 0
VERTEX
 8
UNICORN
 10
1.5558
 20
5.3777
 30
5.9033
 70
32
 0
VERTEX
 8
UNICORN
 10
1.5632
 20
5.3876
 30
5.9033
 70
32
 0
VERTEX
 8
UNICORN
 10
1.5922
 20
5.423
 30
5.9033
 70
32
 0
VERTEX
 8
UNICORN
 10
1.5969
 20
5.4312
 30
5.9033
 70
32
 0
VERTEX
 8
UNICORN
 10
1.6008
 20
5.4403
 30
5.9033
 70
32
 0
VERTEX
 8
UNICORN
 10
1.6036
 20
5.4503
 30
5.9033
 70
32
 0
VERTEX
 8
UNICORN
 10
1.6053
 20
5.4615
 30
5.9033
 70
32
 0
VERTEX
 8
UNICORN
 10
1.6057
 20
5.4697
 30
5.9033
 70
32
 0
VERTEX
 8
UNICORN
 10
1.6054
 20
5.4786
 30
5.9033
 70
32
 0
VERTEX
 8
UNICORN
 10
1.5761
 20
5.4718
 30
5.9033
 70
32
 0
VERTEX
 8
UNICORN
 10
1.5493
 20
5.4625
 30
5.9033
 70
32
 0
VERTEX
 8
UNICORN
 10
1.5246
 20
5.4511
 30
5.9033
 70
32
 0
VERTEX
 8
UNICORN
 10
1.4942
 20
5.4333
 30
5.9033
 70
32
 0
VERTEX
 8
UNICORN
 10
1.4595
 20
5.4079
 30
5.9033
 70
32
 0
VERTEX
 8
UNICORN
 10
1.34
 20
5.3107
 30
5.9033
 70
32
 0
VERTEX
 8
UNICORN
 10
1.3096
 20
5.2929
 30
5.9033
 70
32
 0
VERTEX
 8
UNICORN
 10
1.2849
 20
5.2815
 30
5.9033
 70
32
 0
VERTEX
 8
UNICORN
 10
1.2581
 20
5.2722
 30
5.9033
 70
32
 0
VERTEX
 8
UNICORN
 10
1.2388
 20
5.2674
 30
5.9033
 70
32
 0
VERTEX
 8
UNICORN
 10
1.2184
 20
5.2637
 30
5.9033
 70
32
 0
VERTEX
 8
UNICORN
 10
1.2189
 20
5.3595
 30
5.9033
 70
32
 0
VERTEX
 8
UNICORN
 10
1.2211
 20
5.3745
 30
5.9033
 70
32
 0
VERTEX
 8
UNICORN
 10
1.2237
 20
5.3857
 30
5.9033
 70
32
 0
VERTEX
 8
UNICORN
 10
1.2264
 20
5.3933
 30
5.9033
 70
32
 0
VERTEX
 8
UNICORN
 10
1.2296
 20
5.4004
 30
5.9033
 70
32
 0
VERTEX
 8
UNICORN
 10
1.2335
 20
5.4068
 30
5.9033
 70
32
 0
VERTEX
 8
UNICORN
 10
1.2366
 20
5.4106
 30
5.9033
 70
32
 0
VERTEX
 8
UNICORN
 10
1.2399
 20
5.4141
 30
5.9033
 70
32
 0
VERTEX
 8
UNICORN
 10
1.2299
 20
5.4134
 30
5.9033
 70
32
 0
VERTEX
 8
UNICORN
 10
1.2204
 20
5.4116
 30
5.9033
 70
32
 0
VERTEX
 8
UNICORN
 10
1.2115
 20
5.4089
 30
5.9033
 70
32
 0
VERTEX
 8
UNICORN
 10
1.2031
 20
5.4052
 30
5.9033
 70
32
 0
VERTEX
 8
UNICORN
 10
1.1952
 20
5.4008
 30
5.9033
 70
32
 0
VERTEX
 8
UNICORN
 10
1.1842
 20
5.393
 30
5.9033
 70
32
 0
VERTEX
 8
UNICORN
 10
1.1741
 20
5.3841
 30
5.9033
 70
32
 0
VERTEX
 8
UNICORN
 10
1.159
 20
5.368
 30
5.9033
 70
32
 0
VERTEX
 8
UNICORN
 10
1.1265
 20
5.33
 30
5.9033
 70
32
 0
VERTEX
 8
UNICORN
 10
1.122
 20
5.3261
 30
5.9033
 70
32
 0
VERTEX
 8
UNICORN
 10
1.1175
 20
5.323
 30
5.9033
 70
32
 0
VERTEX
 8
UNICORN
 10
1.113
 20
5.3208
 30
5.9033
 70
32
 0
VERTEX
 8
UNICORN
 10
1.1108
 20
5.3201
 30
5.9033
 70
32
 0
VERTEX
 8
UNICORN
 10
1.1085
 20
5.3197
 30
5.9033
 70
32
 0
VERTEX
 8
UNICORN
 10
1.1062
 20
5.3196
 30
5.9033
 70
32
 0
VERTEX
 8
UNICORN
 10
1.1039
 20
5.3198
 30
5.9033
 70
32
 0
VERTEX
 8
UNICORN
 10
1.1016
 20
5.3203
 30
5.9033
 70
32
 0
VERTEX
 8
UNICORN
 10
1.0992
 20
5.3211
 30
5.9033
 70
32
 0
VERTEX
 8
UNICORN
 10
1.0968
 20
5.3223
 30
5.9033
 70
32
 0
VERTEX
 8
UNICORN
 10
1.0944
 20
5.3239
 30
5.9033
 70
32
 0
VERTEX
 8
UNICORN
 10
1.092
 20
5.3258
 30
5.9033
 70
32
 0
VERTEX
 8
UNICORN
 10
1.0895
 20
5.3282
 30
5.9033
 70
32
 0
VERTEX
 8
UNICORN
 10
1.0731
 20
5.343
 30
5.9033
 70
32
 0
VERTEX
 8
UNICORN
 10
1.0533
 20
5.3576
 30
5.9033
 70
32
 0
VERTEX
 8
UNICORN
 10
1.0194
 20
5.3779
 30
5.9033
 70
32
 0
VERTEX
 8
UNICORN
 10
0.9743
 20
5.4036
 30
5.9033
 70
32
 0
VERTEX
 8
UNICORN
 10
0.9681
 20
5.408
 30
5.9033
 70
32
 0
VERTEX
 8
UNICORN
 10
0.9605
 20
5.4141
 30
5.9033
 70
32
 0
VERTEX
 8
UNICORN
 10
0.8899
 20
5.4844
 30
5.9033
 70
32
 0
VERTEX
 8
UNICORN
 10
0.7387
 20
5.6548
 30
5.9033
 70
32
 0
VERTEX
 8
UNICORN
 10
0.6165
 20
5.7796
 30
5.9033
 70
32
 0
VERTEX
 8
UNICORN
 10
0.613
 20
5.7819
 30
5.9033
 70
32
 0
VERTEX
 8
UNICORN
 10
0.5994
 20
5.7894
 30
5.9033
 70
32
 0
VERTEX
 8
UNICORN
 10
0.5786
 20
5.7986
 30
5.9033
 70
32
 0
VERTEX
 8
UNICORN
 10
0.5631
 20
5.8038
 30
5.9033
 70
32
 0
VERTEX
 8
UNICORN
 10
0.5546
 20
5.8058
 30
5.9033
 70
32
 0
VERTEX
 8
UNICORN
 10
0.5486
 20
5.8066
 30
5.9033
 70
32
 0
VERTEX
 8
UNICORN
 10
0.5432
 20
5.8067
 30
5.9033
 70
32
 0
VERTEX
 8
UNICORN
 10
0.5399
 20
5.8064
 30
5.9033
 70
32
 0
VERTEX
 8
UNICORN
 10
0.537
 20
5.8057
 30
5.9033
 70
32
 0
VERTEX
 8
UNICORN
 10
0.5357
 20
5.8052
 30
5.9033
 70
32
 0
VERTEX
 8
UNICORN
 10
0.5344
 20
5.8046
 30
5.9033
 70
32
 0
VERTEX
 8
UNICORN
 10
0.5333
 20
5.8039
 30
5.9033
 70
32
 0
VERTEX
 8
UNICORN
 10
0.5323
 20
5.8031
 30
5.9033
 70
32
 0
VERTEX
 8
UNICORN
 10
0.5314
 20
5.8021
 30
5.9033
 70
32
 0
VERTEX
 8
UNICORN
 10
0.5306
 20
5.8011
 30
5.9033
 70
32
 0
VERTEX
 8
UNICORN
 10
0.7523
 20
5.4962
 30
5.9033
 70
32
 0
VERTEX
 8
UNICORN
 10
0.9605
 20
5.1777
 30
5.9033
 70
32
 0
VERTEX
 8
UNICORN
 10
0.9557
 20
5.1669
 30
5.9033
 70
32
 0
VERTEX
 8
UNICORN
 10
0.9502
 20
5.157
 30
5.9033
 70
32
 0
VERTEX
 8
UNICORN
 10
0.9438
 20
5.1479
 30
5.9033
 70
32
 0
VERTEX
 8
UNICORN
 10
0.9379
 20
5.141
 30
5.9033
 70
32
 0
VERTEX
 8
UNICORN
 10
0.9314
 20
5.1346
 30
5.9033
 70
32
 0
VERTEX
 8
UNICORN
 10
0.9228
 20
5.1277
 30
5.9033
 70
32
 0
VERTEX
 8
UNICORN
 10
0.9134
 20
5.1215
 30
5.9033
 70
32
 0
VERTEX
 8
UNICORN
 10
0.905
 20
5.1171
 30
5.9033
 70
32
 0
VERTEX
 8
UNICORN
 10
0.896
 20
5.1132
 30
5.9033
 70
32
 0
VERTEX
 8
UNICORN
 10
0.9029
 20
5.1044
 30
5.9033
 70
32
 0
VERTEX
 8
UNICORN
 10
0.908
 20
5.0958
 30
5.9033
 70
32
 0
VERTEX
 8
UNICORN
 10
0.9114
 20
5.0876
 30
5.9033
 70
32
 0
VERTEX
 8
UNICORN
 10
0.9132
 20
5.0795
 30
5.9033
 70
32
 0
VERTEX
 8
UNICORN
 10
0.9136
 20
5.0717
 30
5.9033
 70
32
 0
VERTEX
 8
UNICORN
 10
0.9128
 20
5.0641
 30
5.9033
 70
32
 0
VERTEX
 8
UNICORN
 10
0.9109
 20
5.0567
 30
5.9033
 70
32
 0
VERTEX
 8
UNICORN
 10
0.9081
 20
5.0495
 30
5.9033
 70
32
 0
VERTEX
 8
UNICORN
 10
0.9026
 20
5.039
 30
5.9033
 70
32
 0
VERTEX
 8
UNICORN
 10
0.8934
 20
5.0255
 30
5.9033
 70
32
 0
VERTEX
 8
UNICORN
 10
0.868
 20
4.9906
 30
5.9033
 70
32
 0
VERTEX
 8
UNICORN
 10
0.8648
 20
4.9844
 30
5.9033
 70
32
 0
VERTEX
 8
UNICORN
 10
0.8624
 20
4.9783
 30
5.9033
 70
32
 0
VERTEX
 8
UNICORN
 10
0.861
 20
4.9722
 30
5.9033
 70
32
 0
VERTEX
 8
UNICORN
 10
0.8607
 20
4.9691
 30
5.9033
 70
32
 0
VERTEX
 8
UNICORN
 10
0.8608
 20
4.9661
 30
5.9033
 70
32
 0
VERTEX
 8
UNICORN
 10
0.8611
 20
4.963
 30
5.9033
 70
32
 0
VERTEX
 8
UNICORN
 10
0.8618
 20
4.9599
 30
5.9033
 70
32
 0
VERTEX
 8
UNICORN
 10
0.8629
 20
4.9568
 30
5.9033
 70
32
 0
VERTEX
 8
UNICORN
 10
0.8644
 20
4.9537
 30
5.9033
 70
32
 0
VERTEX
 8
UNICORN
 10
0.8662
 20
4.9506
 30
5.9033
 70
32
 0
VERTEX
 8
UNICORN
 10
0.8685
 20
4.9475
 30
5.9033
 70
32
 0
VERTEX
 8
UNICORN
 10
0.8745
 20
4.9412
 30
5.9033
 70
32
 0
VERTEX
 8
UNICORN
 10
0.8751
 20
4.9441
 30
5.9033
 70
32
 0
VERTEX
 8
UNICORN
 10
0.8759
 20
4.9467
 30
5.9033
 70
32
 0
VERTEX
 8
UNICORN
 10
0.8769
 20
4.9491
 30
5.9033
 70
32
 0
VERTEX
 8
UNICORN
 10
0.8782
 20
4.9513
 30
5.9033
 70
32
 0
VERTEX
 8
UNICORN
 10
0.8797
 20
4.9533
 30
5.9033
 70
32
 0
VERTEX
 8
UNICORN
 10
0.8814
 20
4.955
 30
5.9033
 70
32
 0
VERTEX
 8
UNICORN
 10
0.8832
 20
4.9566
 30
5.9033
 70
32
 0
VERTEX
 8
UNICORN
 10
0.8853
 20
4.9579
 30
5.9033
 70
32
 0
VERTEX
 8
UNICORN
 10
0.8876
 20
4.9591
 30
5.9033
 70
32
 0
VERTEX
 8
UNICORN
 10
0.8912
 20
4.9606
 30
5.9033
 70
32
 0
VERTEX
 8
UNICORN
 10
0.8953
 20
4.9617
 30
5.9033
 70
32
 0
VERTEX
 8
UNICORN
 10
0.9011
 20
4.9628
 30
5.9033
 70
32
 0
VERTEX
 8
UNICORN
 10
0.9106
 20
4.9636
 30
5.9033
 70
32
 0
VERTEX
 8
UNICORN
 10
0.9245
 20
4.9635
 30
5.9033
 70
32
 0
VERTEX
 8
UNICORN
 10
0.939
 20
4.9627
 30
5.9033
 70
32
 0
VERTEX
 8
UNICORN
 10
0.9242
 20
4.9376
 30
5.9033
 70
32
 0
VERTEX
 8
UNICORN
 10
0.9203
 20
4.9291
 30
5.9033
 70
32
 0
VERTEX
 8
UNICORN
 10
0.9189
 20
4.9246
 30
5.9033
 70
32
 0
VERTEX
 8
UNICORN
 10
0.9183
 20
4.9211
 30
5.9033
 70
32
 0
VERTEX
 8
UNICORN
 10
0.9183
 20
4.9196
 30
5.9033
 70
32
 0
VERTEX
 8
UNICORN
 10
0.9185
 20
4.9183
 30
5.9033
 70
32
 0
VERTEX
 8
UNICORN
 10
0.9189
 20
4.9172
 30
5.9033
 70
32
 0
VERTEX
 8
UNICORN
 10
0.9194
 20
4.9163
 30
5.9033
 70
32
 0
VERTEX
 8
UNICORN
 10
0.9201
 20
4.9155
 30
5.9033
 70
32
 0
VERTEX
 8
UNICORN
 10
0.921
 20
4.9148
 30
5.9033
 70
32
 0
VERTEX
 8
UNICORN
 10
0.922
 20
4.9143
 30
5.9033
 70
32
 0
VERTEX
 8
UNICORN
 10
0.9232
 20
4.9139
 30
5.9033
 70
32
 0
VERTEX
 8
UNICORN
 10
0.9245
 20
4.9136
 30
5.9033
 70
32
 0
VERTEX
 8
UNICORN
 10
0.9274
 20
4.9133
 30
5.9033
 70
32
 0
VERTEX
 8
UNICORN
 10
0.9327
 20
4.9132
 30
5.9033
 70
32
 0
VERTEX
 8
UNICORN
 10
0.952
 20
4.9135
 30
5.9033
 70
32
 0
VERTEX
 8
UNICORN
 10
0.959
 20
4.9126
 30
5.9033
 70
32
 0
VERTEX
 8
UNICORN
 10
0.9636
 20
4.9115
 30
5.9033
 70
32
 0
VERTEX
 8
UNICORN
 10
0.9681
 20
4.9098
 30
5.9033
 70
32
 0
VERTEX
 8
UNICORN
 10
0.9724
 20
4.9075
 30
5.9033
 70
32
 0
VERTEX
 8
UNICORN
 10
0.9765
 20
4.9044
 30
5.9033
 70
32
 0
VERTEX
 8
UNICORN
 10
0.9784
 20
4.9026
 30
5.9033
 70
32
 0
VERTEX
 8
UNICORN
 10
0.982
 20
4.8982
 30
5.9033
 70
32
 0
VERTEX
 8
UNICORN
 10
0.9751
 20
4.8639
 30
5.9033
 70
32
 0
VERTEX
 8
UNICORN
 10
0.9654
 20
4.8323
 30
5.9033
 70
32
 0
VERTEX
 8
UNICORN
 10
0.9533
 20
4.8031
 30
5.9033
 70
32
 0
VERTEX
 8
UNICORN
 10
0.9343
 20
4.7671
 30
5.9033
 70
32
 0
VERTEX
 8
UNICORN
 10
0.9013
 20
4.7175
 30
5.9033
 70
32
 0
VERTEX
 8
UNICORN
 10
0.8161
 20
4.5964
 30
5.9033
 70
32
 0
VERTEX
 8
UNICORN
 10
0.7974
 20
4.56
 30
5.9033
 70
32
 0
VERTEX
 8
UNICORN
 10
0.7858
 20
4.5304
 30
5.9033
 70
32
 0
VERTEX
 8
UNICORN
 10
0.7765
 20
4.4983
 30
5.9033
 70
32
 0
VERTEX
 8
UNICORN
 10
0.7701
 20
4.4634
 30
5.9033
 70
32
 0
VERTEX
 8
UNICORN
 10
0.767
 20
4.4253
 30
5.9033
 70
32
 0
VERTEX
 8
UNICORN
 10
0.7955
 20
4.3945
 30
5.9033
 70
32
 0
VERTEX
 8
UNICORN
 10
0.8771
 20
4.298
 30
5.9033
 70
32
 0
VERTEX
 8
UNICORN
 10
0.898
 20
4.2794
 30
5.9033
 70
32
 0
VERTEX
 8
UNICORN
 10
0.9151
 20
4.2668
 30
5.9033
 70
32
 0
VERTEX
 8
UNICORN
 10
0.9337
 20
4.2558
 30
5.9033
 70
32
 0
VERTEX
 8
UNICORN
 10
0.954
 20
4.2464
 30
5.9033
 70
32
 0
VERTEX
 8
UNICORN
 10
0.9763
 20
4.2391
 30
5.9033
 70
32
 0
VERTEX
 8
UNICORN
 10
1.0008
 20
4.2339
 30
5.9033
 70
32
 0
VERTEX
 8
UNICORN
 10
1.0278
 20
4.2312
 30
5.9033
 70
32
 0
VERTEX
 8
UNICORN
 10
1.0473
 20
4.2309
 30
5.9033
 70
32
 0
VERTEX
 8
UNICORN
 10
1.068
 20
4.2318
 30
5.9033
 70
32
 0
VERTEX
 8
UNICORN
 10
1.066
 20
4.2196
 30
5.9033
 70
32
 0
VERTEX
 8
UNICORN
 10
1.0654
 20
4.2086
 30
5.9033
 70
32
 0
VERTEX
 8
UNICORN
 10
1.066
 20
4.1989
 30
5.9033
 70
32
 0
VERTEX
 8
UNICORN
 10
1.067
 20
4.1931
 30
5.9033
 70
32
 0
VERTEX
 8
UNICORN
 10
1.0686
 20
4.1877
 30
5.9033
 70
32
 0
VERTEX
 8
UNICORN
 10
1.0706
 20
4.1829
 30
5.9033
 70
32
 0
VERTEX
 8
UNICORN
 10
1.073
 20
4.1784
 30
5.9033
 70
32
 0
VERTEX
 8
UNICORN
 10
1.0759
 20
4.1744
 30
5.9033
 70
32
 0
VERTEX
 8
UNICORN
 10
1.0792
 20
4.1708
 30
5.9033
 70
32
 0
VERTEX
 8
UNICORN
 10
1.0828
 20
4.1675
 30
5.9033
 70
32
 0
VERTEX
 8
UNICORN
 10
1.0867
 20
4.1646
 30
5.9033
 70
32
 0
VERTEX
 8
UNICORN
 10
1.0932
 20
4.1608
 30
5.9033
 70
32
 0
VERTEX
 8
UNICORN
 10
1.1003
 20
4.1575
 30
5.9033
 70
32
 0
VERTEX
 8
UNICORN
 10
1.1106
 20
4.1541
 30
5.9033
 70
32
 0
VERTEX
 8
UNICORN
 10
1.1302
 20
4.1496
 30
5.9033
 70
32
 0
VERTEX
 8
UNICORN
 10
1.154
 20
4.1458
 30
5.9033
 70
32
 0
VERTEX
 8
UNICORN
 10
1.1564
 20
4.2097
 30
5.9033
 70
32
 0
VERTEX
 8
UNICORN
 10
1.1488
 20
4.3083
 30
5.9033
 70
32
 0
VERTEX
 8
UNICORN
 10
1.1325
 20
4.4038
 30
5.9033
 70
32
 0
VERTEX
 8
UNICORN
 10
1.1376
 20
4.4113
 30
5.9033
 70
32
 0
VERTEX
 8
UNICORN
 10
1.1442
 20
4.4183
 30
5.9033
 70
32
 0
VERTEX
 8
UNICORN
 10
1.152
 20
4.4249
 30
5.9033
 70
32
 0
VERTEX
 8
UNICORN
 10
1.161
 20
4.4311
 30
5.9033
 70
32
 0
VERTEX
 8
UNICORN
 10
1.1765
 20
4.4395
 30
5.9033
 70
32
 0
VERTEX
 8
UNICORN
 10
1.2002
 20
4.4493
 30
5.9033
 70
32
 0
VERTEX
 8
UNICORN
 10
1.2332
 20
4.4592
 30
5.9033
 70
32
 0
VERTEX
 8
UNICORN
 10
1.2756
 20
4.4678
 30
5.9033
 70
32
 0
VERTEX
 8
UNICORN
 10
1.3246
 20
4.4733
 30
5.9033
 70
32
 0
VERTEX
 8
UNICORN
 10
1.3684
 20
4.4743
 30
5.9033
 70
32
 0
VERTEX
 8
UNICORN
 10
1.3937
 20
4.4724
 30
5.9033
 70
32
 0
VERTEX
 8
UNICORN
 10
1.402
 20
4.471
 30
5.9033
 70
32
 0
VERTEX
 8
UNICORN
 10
1.4119
 20
4.4683
 30
5.9033
 70
32
 0
VERTEX
 8
UNICORN
 10
1.3672
 20
4.3815
 30
5.9033
 70
32
 0
VERTEX
 8
UNICORN
 10
1.2808
 20
4.2486
 30
5.9033
 70
32
 0
VERTEX
 8
UNICORN
 10
1.1221
 20
4.0126
 30
5.9033
 70
32
 0
VERTEX
 8
UNICORN
 10
1.078
 20
3.9252
 30
5.9033
 70
32
 0
VERTEX
 8
UNICORN
 10
1.0477
 20
3.8458
 30
5.9033
 70
32
 0
VERTEX
 8
UNICORN
 10
1.0376
 20
3.812
 30
5.9033
 70
32
 0
VERTEX
 8
UNICORN
 10
1.025
 20
3.7589
 30
5.9033
 70
32
 0
VERTEX
 8
UNICORN
 10
1.0034
 20
3.7436
 30
5.9033
 70
32
 0
VERTEX
 8
UNICORN
 10
0.9839
 20
3.7267
 30
5.9033
 70
32
 0
VERTEX
 8
UNICORN
 10
0.9605
 20
3.7019
 30
5.9033
 70
32
 0
VERTEX
 8
UNICORN
 10
0.9398
 20
3.675
 30
5.9033
 70
32
 0
VERTEX
 8
UNICORN
 10
0.9125
 20
3.6318
 30
5.9033
 70
32
 0
VERTEX
 8
UNICORN
 10
0.8541
 20
3.5178
 30
5.9033
 70
32
 0
VERTEX
 8
UNICORN
 10
0.7885
 20
3.415
 30
5.9033
 70
32
 0
VERTEX
 8
UNICORN
 10
0.3767
 20
3.7082
 30
5.9033
 70
32
 0
VERTEX
 8
UNICORN
 10
0.3317
 20
3.732
 30
5.9033
 70
32
 0
VERTEX
 8
UNICORN
 10
0.2726
 20
3.7589
 30
5.9033
 70
32
 0
VERTEX
 8
UNICORN
 10
0.2594
 20
3.7549
 30
5.9033
 70
32
 0
VERTEX
 8
UNICORN
 10
0.2473
 20
3.7498
 30
5.9033
 70
32
 0
VERTEX
 8
UNICORN
 10
0.2361
 20
3.7438
 30
5.9033
 70
32
 0
VERTEX
 8
UNICORN
 10
0.2232
 20
3.7352
 30
5.9033
 70
32
 0
VERTEX
 8
UNICORN
 10
0.2019
 20
3.7178
 30
5.9033
 70
32
 0
VERTEX
 8
UNICORN
 10
0.1647
 20
3.6862
 30
5.9033
 70
32
 0
VERTEX
 8
UNICORN
 10
0.1545
 20
3.6792
 30
5.9033
 70
32
 0
VERTEX
 8
UNICORN
 10
0.1436
 20
3.6729
 30
5.9033
 70
32
 0
VERTEX
 8
UNICORN
 10
0.1524
 20
3.1765
 30
5.9033
 70
32
 0
VERTEX
 8
UNICORN
 10
0.1866
 20
2.7056
 30
5.9033
 70
32
 0
VERTEX
 8
UNICORN
 10
0.2221
 20
2.6895
 30
5.9033
 70
32
 0
VERTEX
 8
UNICORN
 10
0.2548
 20
2.6705
 30
5.9033
 70
32
 0
VERTEX
 8
UNICORN
 10
0.2847
 20
2.6488
 30
5.9033
 70
32
 0
VERTEX
 8
UNICORN
 10
0.3119
 20
2.6245
 30
5.9033
 70
32
 0
VERTEX
 8
UNICORN
 10
0.3365
 20
2.5975
 30
5.9033
 70
32
 0
VERTEX
 8
UNICORN
 10
0.3585
 20
2.5679
 30
5.9033
 70
32
 0
VERTEX
 8
UNICORN
 10
0.3782
 20
2.536
 30
5.9033
 70
32
 0
VERTEX
 8
UNICORN
 10
0.3986
 20
2.4945
 30
5.9033
 70
32
 0
VERTEX
 8
UNICORN
 10
0.4103
 20
2.465
 30
5.9033
 70
32
 0
VERTEX
 8
UNICORN
 10
0.4231
 20
2.4261
 30
5.9033
 70
32
 0
VERTEX
 8
UNICORN
 10
0.4454
 20
2.4291
 30
5.9033
 70
32
 0
VERTEX
 8
UNICORN
 10
0.4659
 20
2.4352
 30
5.9033
 70
32
 0
VERTEX
 8
UNICORN
 10
0.4848
 20
2.4442
 30
5.9033
 70
32
 0
VERTEX
 8
UNICORN
 10
0.5019
 20
2.4559
 30
5.9033
 70
32
 0
VERTEX
 8
UNICORN
 10
0.5174
 20
2.4699
 30
5.9033
 70
32
 0
VERTEX
 8
UNICORN
 10
0.5313
 20
2.4862
 30
5.9033
 70
32
 0
VERTEX
 8
UNICORN
 10
0.5435
 20
2.5043
 30
5.9033
 70
32
 0
VERTEX
 8
UNICORN
 10
0.5541
 20
2.5242
 30
5.9033
 70
32
 0
VERTEX
 8
UNICORN
 10
0.567
 20
2.5565
 30
5.9033
 70
32
 0
VERTEX
 8
UNICORN
 10
0.5764
 20
2.5912
 30
5.9033
 70
32
 0
VERTEX
 8
UNICORN
 10
0.5825
 20
2.6275
 30
5.9033
 70
32
 0
VERTEX
 8
UNICORN
 10
0.5851
 20
2.6644
 30
5.9033
 70
32
 0
VERTEX
 8
UNICORN
 10
0.5845
 20
2.7012
 30
5.9033
 70
32
 0
VERTEX
 8
UNICORN
 10
0.5807
 20
2.7371
 30
5.9033
 70
32
 0
VERTEX
 8
UNICORN
 10
0.5737
 20
2.7711
 30
5.9033
 70
32
 0
VERTEX
 8
UNICORN
 10
0.5637
 20
2.8025
 30
5.9033
 70
32
 0
VERTEX
 8
UNICORN
 10
0.5553
 20
2.8216
 30
5.9033
 70
32
 0
VERTEX
 8
UNICORN
 10
0.5457
 20
2.8389
 30
5.9033
 70
32
 0
VERTEX
 8
UNICORN
 10
0.5347
 20
2.8541
 30
5.9033
 70
32
 0
VERTEX
 8
UNICORN
 10
0.5225
 20
2.8671
 30
5.9033
 70
32
 0
VERTEX
 8
UNICORN
 10
0.5091
 20
2.8775
 30
5.9033
 70
32
 0
VERTEX
 8
UNICORN
 10
0.5298
 20
2.88
 30
5.9033
 70
32
 0
VERTEX
 8
UNICORN
 10
0.5447
 20
2.8832
 30
5.9033
 70
32
 0
VERTEX
 8
UNICORN
 10
0.5563
 20
2.887
 30
5.9033
 70
32
 0
VERTEX
 8
UNICORN
 10
0.5652
 20
2.891
 30
5.9033
 70
32
 0
VERTEX
 8
UNICORN
 10
0.5718
 20
2.8948
 30
5.9033
 70
32
 0
VERTEX
 8
UNICORN
 10
0.5778
 20
2.8991
 30
5.9033
 70
32
 0
VERTEX
 8
UNICORN
 10
0.5832
 20
2.904
 30
5.9033
 70
32
 0
VERTEX
 8
UNICORN
 10
0.5869
 20
2.908
 30
5.9033
 70
32
 0
VERTEX
 8
UNICORN
 10
0.5903
 20
2.9124
 30
5.9033
 70
32
 0
VERTEX
 8
UNICORN
 10
0.5923
 20
2.9155
 30
5.9033
 70
32
 0
VERTEX
 8
UNICORN
 10
0.595
 20
2.9205
 30
5.9033
 70
32
 0
VERTEX
 8
UNICORN
 10
0.5699
 20
2.9332
 30
5.9033
 70
32
 0
VERTEX
 8
UNICORN
 10
0.5537
 20
2.9434
 30
5.9033
 70
32
 0
VERTEX
 8
UNICORN
 10
0.5421
 20
2.9524
 30
5.9033
 70
32
 0
VERTEX
 8
UNICORN
 10
0.5344
 20
2.9597
 30
5.9033
 70
32
 0
VERTEX
 8
UNICORN
 10
0.5276
 20
2.9675
 30
5.9033
 70
32
 0
VERTEX
 8
UNICORN
 10
0.5219
 20
2.9758
 30
5.9033
 70
32
 0
VERTEX
 8
UNICORN
 10
0.5188
 20
2.9817
 30
5.9033
 70
32
 0
VERTEX
 8
UNICORN
 10
0.5162
 20
2.9878
 30
5.9033
 70
32
 0
VERTEX
 8
UNICORN
 10
0.5142
 20
2.9943
 30
5.9033
 70
32
 0
VERTEX
 8
UNICORN
 10
0.5128
 20
3.001
 30
5.9033
 70
32
 0
VERTEX
 8
UNICORN
 10
0.5121
 20
3.008
 30
5.9033
 70
32
 0
VERTEX
 8
UNICORN
 10
0.5121
 20
3.0153
 30
5.9033
 70
32
 0
VERTEX
 8
UNICORN
 10
0.5127
 20
3.0229
 30
5.9033
 70
32
 0
VERTEX
 8
UNICORN
 10
0.5151
 20
3.035
 30
5.9033
 70
32
 0
VERTEX
 8
UNICORN
 10
0.5193
 20
3.0478
 30
5.9033
 70
32
 0
VERTEX
 8
UNICORN
 10
0.5232
 20
3.0568
 30
5.9033
 70
32
 0
VERTEX
 8
UNICORN
 10
0.5306
 20
3.071
 30
5.9033
 70
32
 0
VERTEX
 8
UNICORN
 10
0.5115
 20
3.0689
 30
5.9033
 70
32
 0
VERTEX
 8
UNICORN
 10
0.4933
 20
3.0686
 30
5.9033
 70
32
 0
VERTEX
 8
UNICORN
 10
0.476
 20
3.07
 30
5.9033
 70
32
 0
VERTEX
 8
UNICORN
 10
0.4596
 20
3.073
 30
5.9033
 70
32
 0
VERTEX
 8
UNICORN
 10
0.4441
 20
3.0777
 30
5.9033
 70
32
 0
VERTEX
 8
UNICORN
 10
0.4295
 20
3.0837
 30
5.9033
 70
32
 0
VERTEX
 8
UNICORN
 10
0.4159
 20
3.0911
 30
5.9033
 70
32
 0
VERTEX
 8
UNICORN
 10
0.4032
 20
3.0998
 30
5.9033
 70
32
 0
VERTEX
 8
UNICORN
 10
0.3916
 20
3.1097
 30
5.9033
 70
32
 0
VERTEX
 8
UNICORN
 10
0.381
 20
3.1206
 30
5.9033
 70
32
 0
VERTEX
 8
UNICORN
 10
0.3714
 20
3.1326
 30
5.9033
 70
32
 0
VERTEX
 8
UNICORN
 10
0.3629
 20
3.1454
 30
5.9033
 70
32
 0
VERTEX
 8
UNICORN
 10
0.3522
 20
3.1661
 30
5.9033
 70
32
 0
VERTEX
 8
UNICORN
 10
0.344
 20
3.1882
 30
5.9033
 70
32
 0
VERTEX
 8
UNICORN
 10
0.3384
 20
3.2116
 30
5.9033
 70
32
 0
VERTEX
 8
UNICORN
 10
0.3354
 20
3.2358
 30
5.9033
 70
32
 0
VERTEX
 8
UNICORN
 10
0.3351
 20
3.2605
 30
5.9033
 70
32
 0
VERTEX
 8
UNICORN
 10
0.3377
 20
3.2854
 30
5.9033
 70
32
 0
VERTEX
 8
UNICORN
 10
0.3431
 20
3.3102
 30
5.9033
 70
32
 0
VERTEX
 8
UNICORN
 10
0.3483
 20
3.3265
 30
5.9033
 70
32
 0
VERTEX
 8
UNICORN
 10
0.3586
 20
3.3505
 30
5.9033
 70
32
 0
VERTEX
 8
UNICORN
 10
0.3757
 20
3.3427
 30
5.9033
 70
32
 0
VERTEX
 8
UNICORN
 10
0.3925
 20
3.3328
 30
5.9033
 70
32
 0
VERTEX
 8
UNICORN
 10
0.4144
 20
3.3168
 30
5.9033
 70
32
 0
VERTEX
 8
UNICORN
 10
0.4407
 20
3.2928
 30
5.9033
 70
32
 0
VERTEX
 8
UNICORN
 10
0.4705
 20
3.2598
 30
5.9033
 70
32
 0
VERTEX
 8
UNICORN
 10
0.5065
 20
3.2115
 30
5.9033
 70
32
 0
VERTEX
 8
UNICORN
 10
0.5441
 20
3.1506
 30
5.9033
 70
32
 0
VERTEX
 8
UNICORN
 10
0.5735
 20
3.0925
 30
5.9033
 70
32
 0
VERTEX
 8
UNICORN
 10
0.5753
 20
3.0891
 30
5.9033
 70
32
 0
VERTEX
 8
UNICORN
 10
0.5786
 20
3.0838
 30
5.9033
 70
32
 0
VERTEX
 8
UNICORN
 10
0.5843
 20
3.0767
 30
5.9033
 70
32
 0
VERTEX
 8
UNICORN
 10
0.5948
 20
3.0656
 30
5.9033
 70
32
 0
VERTEX
 8
UNICORN
 10
0.6305
 20
3.0346
 30
5.9033
 70
32
 0
VERTEX
 8
UNICORN
 10
0.6595
 20
3.0065
 30
5.9033
 70
32
 0
VERTEX
 8
UNICORN
 10
0.6886
 20
2.9608
 30
5.9033
 70
32
 0
VERTEX
 8
UNICORN
 10
0.7109
 20
2.917
 30
5.9033
 70
32
 0
VERTEX
 8
UNICORN
 10
0.7249
 20
2.8812
 30
5.9033
 70
32
 0
VERTEX
 8
UNICORN
 10
0.7352
 20
2.8455
 30
5.9033
 70
32
 0
VERTEX
 8
UNICORN
 10
0.7433
 20
2.8018
 30
5.9033
 70
32
 0
VERTEX
 8
UNICORN
 10
0.7479
 20
2.7487
 30
5.9033
 70
32
 0
VERTEX
 8
UNICORN
 10
0.7484
 20
2.6916
 30
5.9033
 70
32
 0
VERTEX
 8
UNICORN
 10
0.7455
 20
2.6196
 30
5.9033
 70
32
 0
VERTEX
 8
UNICORN
 10
0.7455
 20
2.4476
 30
5.9033
 70
32
 0
VERTEX
 8
UNICORN
 10
0.7845
 20
2.435
 30
5.9033
 70
32
 0
VERTEX
 8
UNICORN
 10
0.8203
 20
2.4192
 30
5.9033
 70
32
 0
VERTEX
 8
UNICORN
 10
0.8599
 20
2.3969
 30
5.9033
 70
32
 0
VERTEX
 8
UNICORN
 10
0.9266
 20
2.3501
 30
5.9033
 70
32
 0
VERTEX
 8
UNICORN
 10
0.9915
 20
2.3015
 30
5.9033
 70
32
 0
VERTEX
 8
UNICORN
 10
1.068
 20
2.2541
 30
5.9033
 70
32
 0
VERTEX
 8
UNICORN
 10
1.0847
 20
2.2822
 30
5.9033
 70
32
 0
VERTEX
 8
UNICORN
 10
1.0972
 20
2.3097
 30
5.9033
 70
32
 0
VERTEX
 8
UNICORN
 10
1.1058
 20
2.3367
 30
5.9033
 70
32
 0
VERTEX
 8
UNICORN
 10
1.1108
 20
2.3631
 30
5.9033
 70
32
 0
VERTEX
 8
UNICORN
 10
1.1126
 20
2.3891
 30
5.9033
 70
32
 0
VERTEX
 8
UNICORN
 10
1.1115
 20
2.4147
 30
5.9033
 70
32
 0
VERTEX
 8
UNICORN
 10
1.1077
 20
2.4398
 30
5.9033
 70
32
 0
VERTEX
 8
UNICORN
 10
1.0979
 20
2.4768
 30
5.9033
 70
32
 0
VERTEX
 8
UNICORN
 10
1.0841
 20
2.513
 30
5.9033
 70
32
 0
VERTEX
 8
UNICORN
 10
1.0549
 20
2.572
 30
5.9033
 70
32
 0
VERTEX
 8
UNICORN
 10
0.9763
 20
2.7202
 30
5.9033
 70
32
 0
VERTEX
 8
UNICORN
 10
0.9643
 20
2.754
 30
5.9033
 70
32
 0
VERTEX
 8
UNICORN
 10
0.9589
 20
2.7765
 30
5.9033
 70
32
 0
VERTEX
 8
UNICORN
 10
0.9558
 20
2.7991
 30
5.9033
 70
32
 0
VERTEX
 8
UNICORN
 10
0.9554
 20
2.8218
 30
5.9033
 70
32
 0
VERTEX
 8
UNICORN
 10
0.9563
 20
2.8332
 30
5.9033
 70
32
 0
VERTEX
 8
UNICORN
 10
0.9605
 20
2.8561
 30
5.9033
 70
32
 0
VERTEX
 8
UNICORN
 10
0.9817
 20
2.7988
 30
5.9033
 70
32
 0
VERTEX
 8
UNICORN
 10
1.0223
 20
2.7168
 30
5.9033
 70
32
 0
VERTEX
 8
UNICORN
 10
1.068
 20
2.6411
 30
5.9033
 70
32
 0
VERTEX
 8
UNICORN
 10
1.1455
 20
2.5273
 30
5.9033
 70
32
 0
VERTEX
 8
UNICORN
 10
1.1839
 20
2.4816
 30
5.9033
 70
32
 0
VERTEX
 8
UNICORN
 10
1.2008
 20
2.464
 30
5.9033
 70
32
 0
VERTEX
 8
UNICORN
 10
1.2184
 20
2.4476
 30
5.9033
 70
32
 0
VERTEX
 8
UNICORN
 10
1.2499
 20
2.4228
 30
5.9033
 70
32
 0
VERTEX
 8
UNICORN
 10
1.29
 20
2.3968
 30
5.9033
 70
32
 0
VERTEX
 8
UNICORN
 10
1.403
 20
2.3422
 30
5.9033
 70
32
 0
VERTEX
 8
UNICORN
 10
1.5194
 20
2.2971
 30
5.9033
 70
32
 0
VERTEX
 8
UNICORN
 10
1.7515
 20
2.2169
 30
5.9033
 70
32
 0
VERTEX
 8
UNICORN
 10
1.7822
 20
2.1992
 30
5.9033
 70
32
 0
VERTEX
 8
UNICORN
 10
1.8054
 20
2.1825
 30
5.9033
 70
32
 0
VERTEX
 8
UNICORN
 10
1.8217
 20
2.1682
 30
5.9033
 70
32
 0
VERTEX
 8
UNICORN
 10
1.8418
 20
2.1467
 30
5.9033
 70
32
 0
VERTEX
 8
UNICORN
 10
1.8324
 20
2.0382
 30
5.9033
 70
32
 0
VERTEX
 8
UNICORN
 10
1.7946
 20
1.7547
 30
5.9033
 70
32
 0
VERTEX
 8
UNICORN
 10
1.7948
 20
1.7049
 30
5.9033
 70
32
 0
VERTEX
 8
UNICORN
 10
1.7989
 20
1.6522
 30
5.9033
 70
32
 0
VERTEX
 8
UNICORN
 10
1.8039
 20
1.6217
 30
5.9033
 70
32
 0
VERTEX
 8
UNICORN
 10
1.8153
 20
1.5788
 30
5.9033
 70
32
 0
VERTEX
 8
UNICORN
 10
1.8614
 20
1.4628
 30
5.9033
 70
32
 0
VERTEX
 8
UNICORN
 10
1.9063
 20
1.3513
 30
5.9033
 70
32
 0
VERTEX
 8
UNICORN
 10
1.9844
 20
1.1038
 30
5.9033
 70
32
 0
VERTEX
 8
UNICORN
 10
1.9913
 20
1.0635
 30
5.9033
 70
32
 0
VERTEX
 8
UNICORN
 10
1.9925
 20
1.0478
 30
5.9033
 70
32
 0
VERTEX
 8
UNICORN
 10
1.9923
 20
1.0288
 30
5.9033
 70
32
 0
VERTEX
 8
UNICORN
 10
1.9903
 20
1.0129
 30
5.9033
 70
32
 0
VERTEX
 8
UNICORN
 10
1.9845
 20
0.9878
 30
5.9033
 70
32
 0
VERTEX
 8
UNICORN
 10
1.9704
 20
0.9451
 30
5.9033
 70
32
 0
VERTEX
 8
UNICORN
 10
1.948
 20
0.8932
 30
5.9033
 70
32
 0
VERTEX
 8
UNICORN
 10
1.9383
 20
0.8744
 30
5.9033
 70
32
 0
VERTEX
 8
UNICORN
 10
1.9278
 20
0.8569
 30
5.9033
 70
32
 0
VERTEX
 8
UNICORN
 10
1.9108
 20
0.8337
 30
5.9033
 70
32
 0
VERTEX
 8
UNICORN
 10
1.884
 20
0.8044
 30
5.9033
 70
32
 0
VERTEX
 8
UNICORN
 10
1.8453
 20
0.7696
 30
5.9033
 70
32
 0
VERTEX
 8
UNICORN
 10
1.7748
 20
0.7177
 30
5.9033
 70
32
 0
VERTEX
 8
UNICORN
 10
1.5597
 20
0.5722
 30
5.9033
 70
32
 0
VERTEX
 8
UNICORN
 10
1.5384
 20
0.5535
 30
5.9033
 70
32
 0
VERTEX
 8
UNICORN
 10
1.5194
 20
0.5344
 30
5.9033
 70
32
 0
VERTEX
 8
UNICORN
 10
1.514
 20
0.4968
 30
5.9033
 70
32
 0
VERTEX
 8
UNICORN
 10
1.504
 20
0.4552
 30
5.9033
 70
32
 0
VERTEX
 8
UNICORN
 10
1.4864
 20
0.4041
 30
5.9033
 70
32
 0
VERTEX
 8
UNICORN
 10
1.4474
 20
0.314
 30
5.9033
 70
32
 0
SEQEND
 0
ENDSEC
 0
EOF
